/* XPM */
static char *_1023_e12e6df812ab37953b60b83678585b112bc8f13fa03f42564588dc144935e8a0[] = {
/* columns rows colors chars-per-pixel */
"128 128 38 1 ",
"  c #00030F",
". c #000310",
"X c #000311",
"o c #000312",
"O c #000313",
"+ c #000314",
"@ c #000315",
"# c #000316",
"$ c #000416",
"% c #000517",
"& c #000518",
"* c #000519",
"= c #00051A",
"- c #00051C",
"; c #00051D",
": c #00051E",
"> c #00051F",
", c #00061F",
"< c #000522",
"1 c #000622",
"2 c #000624",
"3 c #000725",
"4 c #000726",
"5 c #000829",
"6 c #00082C",
"7 c #00083A",
"8 c #000944",
"9 c #000948",
"0 c #000B4A",
"q c #000F4A",
"w c #000B4C",
"e c #000D52",
"r c #000D58",
"t c #001895",
"y c #0027C1",
"u c #003DFF",
"i c cyan",
"p c #B1FFFF",
/* pixels */
"OOXOX....XX++++$+++&&**&*&##%*%%**%**%%%=======--------;;;;-----=;;;;;;;;---===;;;--;;;;-======--=-=&&*&&&&&&++o+++++   ........",
"OOXXX....++++++++##@#&&###===%***%%**-========---==----->1>>>>>>>>1>1111;;--==-;;--;;;,;-=--====*====-**&&&&&&@o++$++o+.. ......",
".XXXX...++++++++###@&&&&&*===*%%%%%--==========-=q:>>>>>>1>>>>>>>::::1111>>111-;;=-;;;;-=-;;,**=**==---*&&&&&&#@o+++++++  ......",
"XXXXXX.++++++++&####&#&=*==-*%%%*-==-=========:>:q>>>>>:::>>:::::::::11111>1>>>>:>-;;;;---;;;;;**========&&&#####o+oo++++ . ..XX",
"XXXXXX++++++oo#&&#&&#&====%**%%============:::q::y>>q>>::::::::::::::>>>>>>>>>:>>:>>>;-----;;;;;;-=====-==**&#####+o++++++.XXXXX",
"XXX..++++++o@@###&&&****%*%%%q====-===--->::>:>qqyqq::>:::::::::::>>>>>>>>:>>>>>:::>1>q-----;;;;;;,*%**=-==-**#####@+++++++XXXXX",
"XOX.+++++++########%%%%%%%%%qqq=-=-==->>>>>:>>qqyiyq>>::<<<<<<<<<<222222>>>>>>>::::1>>q>1>---;;,,;,;%**====-=&&#@@##&+++++++XXXX",
"XXX+++++++#&#&&&&#%%%%%%%%===q===-==>>>>>>>>qqyyiiiyyqq<<<<22222<q<2222222222>::>::>1qyq:>>>--;-,;;;;-=-=====-#&#&##*#+++++++XXX",
"..+++$+++###&&&&#*%%**%%%========-::>>>>>>>>>>>qyiyq<<<<<<22222<<q<2222222<<22<2211qqyyyqq>>>>;;-;,;---%*===*=*&###&&&&+$+++++XX",
".oooo+++#####&&=**=****==--==-==>:::>>>>1>>>222qqyqq2<<<<<222<<<<q<2222<22<q<2222<<<1qyq111>>>11;;;;-----*=******#&&&##&++++$++X",
".ooo++o@@###&&=**===**--;---;;-:>>>>>>>>>>2222q2qy22q<<2<<2222<<<qq2<22222<q22222<<<22q1111111111---;-;---**==****&&####&++++++X",
"++o+++@@@###&*%***===;-=---=->>>1>>>>>>222222222qq22<<<2<344q433qqq443q222q2<2222q2222q2211111111>:----q--;=****=*=&###&&&++++++",
"oo+++@@@@@#@*%%%***=-;;=--;;>>qqqqqqq2222<2222222q2333444333q343qqq443q444q4422qq222<222222111111>>>---q----*****===&&&&&&&+++++",
"ooooo@@@@@@%%%%%**;--;;=-;111qqyyyyyqqqqqq<<<<<<3333333q4334qq33qyq44qq44qq554qyq222<222222221111>>>>q-yq-q---***==*=&&&&&&+++++",
"++oo@@@@@@%%%%**=;,,;--;;111qqyyiiiyyyyyyqq2<3333333333qq444qq5qqyqqqqqqqq56qyyq3442<<22222222>>>1>qq>qyqq--;;;=*=*%*=&&&&&&++++",
"+o+#####@*******;;,,,,;;111qqyyiiiiiiiiiyyqqq33333333333qq54qq4qqyqyqqqqqqqqyiyq44444<2222222222>1>>qqyiyqq;,;;,-*%*===&&&&##+++",
"++&&&####**==**;-;,,,;;111qqyyiuuuuuuuiiiyyyqqqq33333444qqqqqqqqyyyyyqqyqqyyiyqq434564442222222221qqyyiiiyyqq;,,,=****=&&#####++",
"+#&&*##&==**==;;;,,,,1111qqyyiuutttttuuuiiiyyyyqqq333344qqqqqyqqyiyyyqyqqyyiyqq43446644442222222222:>qyiyqq-;-,,,;****==#######+",
"+#&&**&=**=*=;;;-,,,111>1qyyiuutt999tttuuuuiiiyyyqqqqq3q4yyqqyyqyiyiyqyqyiiyqq53334qq55553422222222<qqqyqqq1;;-,;;;=*===*######+",
"&&#&&&*=*====;;;;;;>>>1>>qyiiutt999ww0ttttuuuiiiyyyqqqq3qqyyyyyqyiyiyyyyiiyqq455qqq6655443455222222<qq>y:q:q1-;-;;;======*######",
"&&&*&****===;-----1>>>11>qyiiuutt9www0000tttuuuiiiyyyqqqqqyiyyiyyiyiyyyiiyqqqqqqqqq555544334442222<q<21q::>>::=;;;;;=====**#####",
"&#&*&******;-;--->>>>1111qyyiiuutttew000000tttuuuiiiyyyyqqqyiyiyyiyiyyiiyyyyyyqq3355554443344444222<2<<q:::>:::-;-;;-====**#####",
"#&&&==***=;;--;;-11:>>122qqyyiiuuuttww0000000tttuuuuiiiyyyqyiyyiyiiyyiiyyyiiyqq43544444443344454422222<<2::::::=;-----====**####",
"**&-=*===;---q;;>::::>2222qqyyiiiuuttw000000000ttttuuuiiiyyyyiyiipiyiiyyiiyyqqqqqqq444444434445444<22<<<<<::>>::------;====**###",
"***-==-==q;;-q;1>>>>>>22222qqyyiiiuutt000000000000tttuuuiiiyyyiyipiipyiiiyqqqqqq454444444455q444434<<222<<:>>>>::-----;====**###",
"&*--==-=;qq;;q11q1>>>222q222qqyyyiiuutt0000000000w00tttuuuiiiyipipipiiiiyyyyyyq434444444q444q45444442<2<<<2>>:>:::-----;======&&",
"&--==q-;,qq--qq1q::q222q<2244qqqyyiiuuttwww00000w00wwttttuuuiiiipipppiyyyyyqqqq3334444443q44q4q444q3522<<<22>:>::>1----;;======&",
"&====-qq;-qq;qqqq:q<<qqq2244444qqyyiiuuttwwww0wee0tttttuuuuuuuiippiiiiiiiyyyyyqqqqq555q43qqqyqq4qq4444<<<<<2<>>>::1-;-;;;======&",
"=*****qqq-qqqqyqqqqqqqyq24444444qqyyiiuuttwwwweetttttuuuiiiiiiippppiyyyyyyqqqqqqq44455qqqqqqyyqqqq44333<<<<222::>:>1-;;;;;======",
"=*%%%-;qqqqyqqyqqyqqyyq<344444444qqyyiiuutt0wwww00wttttuuuuuuuipippiiiyyyyyyqqqq334465qyqyqyyyqqy3343333<<<<<2<>>>>>1;-----*====",
"=*%**-=qyyqqyqyyyqqyiyqqqq34444444qqyyiiuuttwww0w0wwwwtttuuuuipiipippiiyyyyyyyqq3443qq4qyqyyiyyyqqq333333<<<<<<>>>>::------*====",
"=***=--=qyyqyyiyiyyiyqqqq3344444444qqyyiiuuttwwwww0ww0tttuuuiuiiipiiiiiiiyqqqqqq55333qqqyiyyiyiyyyqqq33333<<<<22>>::>>----;;=--*",
"%%*%=---qyiyyyiyiyiyqyq3334555544544qqyyiiuuttwwwww0ettuutuiuiiuiiuiiiiyyyyyqqqqq4433qqyyyiipiyyyqq33333333<<<222>:::>>==-;;=---",
"%%*---qqqqyiippiyiyiyqq33335454445433qqyyiiuuttwwwwwttutttuiuiuuiiuiuiiyqqqqqqqqqqqqqyyyyyyppiyyqqqq3333333<22222>:>>>>==--;;=--",
"***qqqqyyyyyiippppiyq54333334444444443qqyyiiuuttwwtttttttuiuuiuuiuuiuuiyyqqqq4464qq33qqqyyipiyyyyyyqq3333333<22222::>>>>=-;;;==-",
"**-=qqqqqyyyippppyyqqqqqqq4433q43443443qqyyyiuuttwwwwwwtuiutiuuuiuuutuiyyyqqqq43343q33qyyyiyyiyqqqqqqq3333333222222>>>>>-;;;;;--",
"==--;-=qqyyppppiiiyyyqq334445qqq44435434qqqyiiuutwwwwwttiutuituiutuutuiiyqyq3qq33433qqqqyiyqyyyyq333333333333222222>1>>>>;;;;,=-",
"=;;;;-qyyiiiipupiyyyqq34444444q54435545553qyyiiuttwwwwtuittuutuiuttutuiiyqqyq34q3333333qyyqqyyqqyq33333333333322222<>>>>1;-;;;,=",
"*;,,;qqqyyiipiupiiyyqqq4344444444446444444qqyyiuutt00ttuuttuttuittuttuuiyqqqq4333334333yqqqqqy3qqq333333333333222<<2>>>11>--;;,=",
"=,-,q;qyyiiiuiuiuiiyyqqq4344444444455445433qqyyiuut00ttutttuttuuttutttuiyqqqqq33343543qq3qqqqq3q33q333333333343<22222>1>>>-;,;;=",
";,,;,-qyiiiuuuuuiuiiyyqq44433454455545544333qqyiiut00tutt0ttttuuttttwtuiyyq3qq33354443q344qqq333333333333333333422222>11>>-,;;;-",
";;,-;1qyiiuutuuuiuuiiyyqq34434445555455433333qyyiut0ttt000ttttuttttw0tuiiyq33q444444333345q3q3333333333333333333<<2<<::1:>>-;--=",
";;;;->qyiiuttuttutuuiiyyqq4434444555445333333qqyiut0tt0000t0ttutwttw0tuiiyq43q444433333344q333333333333333333333<<<<<<>1>>>-----",
";;-->:qyiiuuttttuttuuiiyyqq44435455555344333qqyyiutt000000t0tttt0tt00tuiiyq433444443333444q44333333344333333333342<<<<:::>>1--;-",
";;,->1qyyiiuutttttttuuiiyyqq443334555533344qqyyiiutwww000t00tttt0tt00tuuiyqq33344444433444444333333444433333333332<<<22>::>>-;--",
"-=;;1>qqyyiiuutttttttuuiiyyqq4454555554444qqyyiiuutwwwww0t00ttt00t000ttuiyyq3334444443444444333333444q444333333333<22<2>>>::;;;;",
"===>1>>qqyyiiuuttt00ttuuiiyyqq44345555444qqyyiiuuttwwww00w00tt00000000tuiiyq334444444344444333333444qqq4443333333422222>>>>>1-=-",
"=-=:1>>>qqyiiiutt0wwwttuuiiyyqq433555444qqyyiiuutt0wwwwwwww0tt00000000tuiiyq3444444344444333333334444q444443333344222222>>>>:---",
"-==>>>>>2qyyiiuuttwwwwttuuiiyyqq4355544qqyyiiuutt000wwwwwww0t000000000tuiiyq33444444454q333333333444444444443334444q2222>::::---",
"-=->>>>>2qqyyiiuttwwwwettuuiiyyqq43554qqyyiiuutt0000weeeee0t00000000wwtuuiyqq3444444444q333333333444444433334333334q222<>:>::---",
"--:>>>>>22qqyiiuuttwwweettuuiiyyqqq35qqyyiiuutt00000wweeeeeww000000wwettuiyyq444444334qyq33433334444444433333433q3qyq<q<>:::>>--",
"-=::>:>2222qyyiiuutwwwwwwttuuiiyyyqqqqyyiiuutt000w0w0wwwwwwwwwew000www0tuiiyq4443443qqyyyqq3333344444444444444433qqyqq<<<::>>1==",
"--:>>>>2222qqyiiiuttwwwwwwttuuiiiyyyqyyiiuuttwww00ww0wwwwwwwwwe0w00wwwwtuiiyq344444333qyq33333334444444454443333qqyiyqq<<::>>>-=",
"-->>::>22222qyyiiuuttwweewwttuuuiiiyyyiiuutt00w00w0wwwwwwwwe0ewee00wwwwtuiiyq4344444434q4333344344444445444433qqyyiiiyyqq::>>:==",
"--::::>22222qqyyiiuutweeeewwtttuuuiiiiiuuttw0000000wwwwwwweeewwwww00000tuiiyq4334444344q333333q34444445554433333qqyiyqq<<:>>>>--",
"-=::>:>2222<3qqyyiiuttweeeewwwtttuuuuuuuttww0w0w0000wwwwwweee000ww0000wtuuiyqq3334444433333333q344344445544334333qqyqq<<<:>1:>--",
"->>>>:<2222<33qqyiiuutweeeewwwwwtttttttttwwwwww00000000000w0000000w000wttuiyyq333344444433q333q344q3344444333333q3qyq2q<<<>>::>-",
"->>:>>222223333qyyiiuttewewwweew00w0000ww00w0w00000000000w0000000wwwwwwwtuiiyqq33344444433q333qq44q3333543334333333q32<<22>:>>>-",
"->>::>2222<3333qqyiiuuttw00weeww00000000000w00www0w0w000www000wwwwwwwwwwtuuiyyqq4344344433qq4qqq33q33q4333334433333q3<<222>>>>>-",
"->>::>2222<33333qyyiiuutw0wwweww00000000000000wwt000t0wwwwww000ew0wwwwwwttuiiyyqq444444433qq4qqq3qq33q44433343333333322222>>>>>-",
"-:::>>2222<33333qqyyiiutt0wwww00000000000000000wtww0tweww0w00w0ww00www000tuuiiyyqqq444q433qq3qqq4qq3qq44333343333334322222>>>>>-",
"=:::>>222<<333333qqyiiuuttww000000000000ww0w0000t0wet0ewtw0000w00000ww000ttuuiiyyyqq44qq44qq4qyqqqqqq43433q3343333334222<2>>>>>-",
"=:::>>222<23344433qyyiiuutww000ww0000w0wtww00000tw0tutw0t0w00t000w000w000wttuuiiiyyqq43qq4qqqqyqqyqqq43qqq3334433333422222>>>>>-",
"=::>>>222<<3333433qqyiiiutt0000000ww00wwttww0t00tt0tut00t0000t00000000000wwttuuiiiyyqqqqqqqqqyyqqyqq44qqqq3334443333322222>>>>>-",
"=:>>>>222<<33343333qyyiiuutt00000wwwwwwwwtt00t0ttutuiutttwwwtwww0000000000w0ttuuiiiyyqqqyqqyqyyqyyqq4qqyq44444444333322222>>>>>-",
"=>1>>>22<<<43443333qqyyiiuutt0000wwwwwwwwttt0ttttutuiutttwtttwwww000000000000ttuuiiiyyqqqyyyyyyyyqqqqyyyq444444444333222<2>>>>>-",
"=:>>>>22<<2433333333qqyiiiuut0000wwwwtwwwwtuttutuutuiututtuttww000000000000000ttuuuiiyyqqyyyyyiyyqqyyiyq4444qq44444552222<>>>>>-",
"=>>>>><<<<24433333333qyyiiiutt000wwwwwttwttuututuuuiiututuut000t000000000000000tttuuiiyyqqiyyyiyyyyyiyqqqqqq44444445522222:111>-",
"=>>>::<<<224443333333qqyyiiuutt000wwwwwwtttuiutuuiuiiuutuiut00t00000w000000000000ttuuiiyyyyiyyiyyyyiyqyyqq4444444445522222>111>-",
"=:::::<<<2244433333344qqyyiiuutt0wwwwwwwttttuiuuuiuiiuuuiut0tt00000000000000000000ttuuiiiyyyiyiyyiiyyyqqq4444444444552222<>1>1>-",
"-:::::<<222444333344444qqyyiiuuttwwwwwtttuttuuiuuiuiiuuiuuttt00000t0000000000000000ttuuiiiyyiipiiiyyyqq33444444444444222<<>>1>>,",
"=:::::<<2222433333443444qqyyiiuuttwwwwwtttuutuiiuiupuuiiuuttttttttww00000w00000wwwwwttuuiiiippppiyyyyyqqqqq4444444442222<<>>>>1,",
"==:::::2222<3333333333443qqyyiiuutttttttuuuuuuiiiupiiuiuuuuuutttwwww0000www0000ww0wttttuuuiiiippiiiiyyyyyqqqqq44444422222::::>,;",
"==:::::22<<<3333333q334443qqyyiiuuuuuuuuuuuuiiuiiipiuiuuuuuttttww00000000w0w000wwww00wtttuuiipipiyyyyyqqqqq4444444442222<>::>1,;",
"==:::::<<<<<3333333q3333333qqyyiiiiiiiiiiiiiiiiippppiiiiuuuuutttt00000000000ww0w0wwwwwttttuuiiippiyyqqqqq444444444442222<:::>>;;",
"==:::::<<<<<3333333q33333333qqyyyyiiiiiiiiiiiiiippppiiiiiiiiuuuuttt0000000000wwwwwwwtttttttiuiipyiyyqqqq5444q444444422222:::>>--",
"==:::::<<<<<333333qyq33333333qqqqyyyyyyyyyyyyyyiippippiyyyiiiiiuuutt00000000000wwwttttttttittiupiiiyyq4qq554q444444422222::::>==",
"==::::::<<<<<333qqyyyqq333333334qqqqqqqqqqyyyiiiiipiiyiiiyyyyyiiiuutt00w000000000twweetttitttiuiuiiiyqq55q44q44444422222>:::>:==",
"===:::::<<<<<33443qyq3333333333443333qqqyyyiiiiiiipiiiyyyiqqqyyyiiuutt0000000000000wwtw0ttttituiuuiiyyqq544qq4q444422222>::>:;-=",
"===:::::<<<<<333333q3333333333333333333qqyyyyyiiyipiiyiyyqyyqqqyyiiuutt0000000000000tee0ttttituiuuuiiyyqqqqqqqq44q422222>::>>==-",
"===:::::<<<<<<33333q33333333333333333qqqyyqyyiiyyiiyiyyyyqqqqqqqyyiiuutt00ww0000000t0wwtwwttttuiutuuiiyyyqqqyqq44q222222>::>:--=",
"===::::::<<<<<33333q33333333333333333333qqyyiiyyyiiyyyyqyyqqqq4qqyyiiuuttw0w0000000000wwwwtttttuuttuuuiiyyqqyqq4qq2222211:>>>-=-",
"====:::::<<<<<333333333333333333333333qqqqyiyyyyyiiyyqyqqqyq3qq4qqyyiiuutttww00000000weewetttwtuuttttuuiiyyyyyqqyq22222111>>----",
"====:::::<<<<<<333333333333333333333qqq4qyiyqqyqyiyqyyqyqqqq33q33qqyyiiuuutt0000000000wewetetweuttrttuuuiiyyiyqyyq2q2221>>>>----",
"====::::::<<<<<q333333333333q3333333333qyyyqqyyqyiyqqyqqyqqqq33333qqyyiiiuutt000000w0w0wwtee0wwtteetetuuuiiyiyyiyqq<22>1>>>>----",
"--===:::::<q<<<q333q3333333qqq333333334qyyqqqyqqqyyqqyqqqyq4qq33333qqyyiiiuutt00000wwwwwwwewwwwtteerrettuuiipyiyqyq222>>::>-----",
"=====::::::q<<qqq33q33333333q333333443qqqqqqyq4qqyqqqqqqqqqq44433334qqyyyiiuutt0000wwewwwwwwwwwterrrreettuuipppiyqqqqqq1>:>==---",
"======:::q:qq<qqq3qq333333343333333q4qqqqqqqq455qqqqqq4qq4qq455543443qqqyyiiuutt000wwewwwwwwwwwterrrtttuuippppiyyyyqq1111>-====-",
"%=====:::qqqqqqqqqqq333333344333q33q4qqqq4qq5555qqq45q44q34qq5554q53333qqyyiiuutt0wwwewwwwwwwwweerrreettuuiiipiyyqqq21111>--===%",
"%=====::::qyqyqyqqyq333q333433333q33qyq454q45555qq445qq44q3345545q55q333qqyyiiuutttwwwewwwwwwweerreettuutuiiupiiyyqq111111-----*",
"%======::::qyqyyqyyqqqq3333333333qqqqyq4544444444qq444q4333335555qq5q333qqqyyiiuuuttwwwwwwwwwwreeeeeetttuiuuuiuiiyyqq1111;--;--*",
"%%=====qqqqqqyyiyiyqqq33334333333qqqyiyqqqq444444q4q3qq34443q5555qq4q333q3qqyyiiiuuttwwwwwwwwweeeeeeeeeuuuuuuiuuiiyyqq111;;---**",
"%%======:qqqqqiiiyyyq3333334333qqqyyiiiyyqqq4554444q3qq334434qq66qyqqqqq344qqyyiiiuuttww0wwwwwweeeeeeetutututuuuuiiyyq11;---;;=*",
"%%%=====::qyyiiiyyyqqq33333333333qqqyiyqq333455544qq3q34443334qqqqyqyqyq4qq3qqyyiiiuuttt0wwwwwweeeeeetuttttututtuuiiyqq1----;==*",
"%%%======qqqqyyiiyyqqqq333333333q33qqyqqq333345444qy3qq334q3455qyqyyyqyqqq433qqyyiiiuuuttwwwwweeeeeettteettttttttuuiyyq;----;===",
"%%%%=====qqqyqyiyqqyq33333333333333qqyq33q333q544qqyqqq33qq4454qqyyyyyyyqqqqq4qqyyyiiiuuttwwweeeteeeetretett9tt9ttuiiyqq----=**=",
"%%%%===qq=:qqyqyqyqqq<3333333333333q4qqq333333qq4qqyqyqqqq4445qqqyiyiyiyyyqq334qqqyyiiiuuttweeeeteeetteetwtt9t998tuuiyyq----**==",
"**%%%======qqqqyqqqqqq<443333333333q4q3q333333qqyqyyqyqqyq3443qqyyyippyyyqq333444qqyyyiiuuttteeeeteetteee9t99t988ttuiiyq---***==",
"**%%%======qq:qqqqq<<q224434333333344q333333334qqyyyyyyyyq4qqqqyyyyipiyyqq33334444qqqyyiiuuutteeeteetttet9t99t9888tuuiyq;--*=***",
"*%%%%%====q=::qq:qq<<<q22433334443344q33333334qyyyyyiyyiqyyqqqqqqyiiiyiyqq3343444444qqyyiiiuuttttttetut9t9t99t8888ttuiyq;;=====*",
"@%%%%%%======:qq::qq<<22223334444343344433qqqqqqyiyyiyiyyqqq4qqyyyyyiyyyyqq3334444444qqyyyiiuuttuttetuttt99tt888888tuiyq;======&",
"@%%%%%%======:q::::q<<22<<<4444443433344333334qyyiiyiiiyyyqqq4qqqqyyyyyqqqqq3344334434qqqyyiiuuuuttututtuttut88t888tuiyq;======&",
"@@*%%**=======q:>::::<<2<22<3444444334443333qqyyyyipipyyyyyyqqqqqyqyyqqq443qqq4434333444qqyyiiiuuutuuuutuuut88t888ttuiyq=*====&&",
"@@@%%===*======>>>::::<2222<<44434443444433qqqqqyiiipiiyyyqq333qqqqqyqqqq3333333333333445qqyyiiiuuuuuiuuuiuttt8887tuuiyq*====&&&",
"#@@%%*==*=======>:::::2222<2<<334433344544qqqyyyyyipipyy3qqq33qq3qqqqq33qq4333333334433344qqyyyiiiuuuiuuiuttttt87ttuiiyq**===&&&",
"@@@@%%%%*%===-===::::::222<<2<<34433334qqqqqqqqyqyiyiyiyyqq334333qq3qq433333q333334354544qqqqqyyiiiiuiuiuuttut87ttuuiyyq**==&&&&",
"@@@@@%%%*%%======:::::::>22<<<<<3333445544433qqqyiyyyyyyyqq444344q34q5555333q3333445555444qqqqqyyiipipiuutuut88ttuuiiyqq*==&&&&&",
"@@@@@%%%**%*--====:::>>:>:22<<<2y<334455444433qqyyqyqyqqyyq443444444q555443qyq3334443454q34qqyyyyyyippuuuiutt8ttuuiiyyq====&&#&&",
"@@@@@@%%**%*=;-=-==:>>>>11:2<<22y<<3545554434qqyqqqyqqyqqqqq44344445q4454qqyyyqq334544344qqqqqqyyiiiipiiiuuttttuuiiyyqq===&&*&&&",
"o@@@@@@%*%*=*-======:>>>>>>:<<2yiy2<25444433qqqqqqqqqqqqqqqqq34334445444444qyq33333444444442qqqyyyyyipiiiuuuuuuuiiyyqq===&&&*&&+",
"o@@@@@@@*****%=======>>>>>>::yyiiiyy<2<34333qq33q33qqqq35444q334444444444444q544333444444<22qqqyyyyiyiyyiiiiiiiiiyyqq===&&&&**&$",
"oo@@@@@&#**%%%%====---->111:::>yiy2<<<<<343q3333q33qqqq444444434545544444444q5444433334qqqqqqyyqyyiyyiyyyyiiiiyyyyqq===&&&#&**++",
"ooo@@@@##**%%%%%===-----111>:>>>y2222<222223333q333q44qq444444454443444454444444444332222qqqqqqqqyyyiyyyyyyyyyyqqqq====&&&#&&+++",
"oooo@@@#@@*%%%%%%==----;;111>>>>y>222222222<<3333333455q444444444433344555555455556<22222<<<22qqyyqyiyyyqqqqqqqq*****=&&&&&&++++",
"ooooo@###@@%%%%%*%-----;;;111>>>>>>222222222<<<<33334555444444443333334445556555252222222<<22qqqqqyyiyyqyqqq--===*=**&&&&&&+++++",
"o+ooo######@%%%%=***---;;;;->>>>>>>>>2222222<<2<<<<55555554444333333333455444222222222<<222:>qqqqqyqyyqqqq;-%***====&&&&&&&++++$",
"oooooo&#####@%%**=***--;;;;-->>>>>>>>>>2222222<<<<222222255444433333333<<<<<<222222222222>:>q>>qqqqqyqqq=q=****==*=&&&&&&&++++$$",
" ooo+o+#####@@%*******;;;;;---->>>>>>>>>>12<<<<2222222222222222<<<<<<<<<<<<<222222222<>>>>>>>>>>qq-qyq-q-=q%%*****&&&##&&+++++$X",
" oo+++++####@@@**=*=***;;;;----->>>>>>>>>:::2<2222252222222222<<<<22<<<2<<<<2222222<>>>>>>>>>>>>q-=qqq---%%%%*=*=&*&&#@#++++++$O",
"  oo+++++####@##&========;;;------>>>>>>>::::>>22<22222222225<<<<222<<<2<<<<<22<2::>>>>>>>>>>1;q-==qq--*****==-&&*&##&&+++++++XX",
"   o++++++#####&&&========;;-------->>>>>:::::>:::><222255222222<2222<<2<<<22:>:>::::::::>>>;;;;====q-********&*&*##@#+++++++XXX",
"   .+++++++###&&&&&=========;--------->>>:::::::>:::::11222225222<<<<222::::::>::::::::>>>---;;;-===q********&**&&##@oo+++++XXOO",
" . ..+++++++##&&&&&&=========--;--------->::::::>>::::111>1>11>>>>:::::1>:>>::>>::::::>--------;--=%********#@**&###ooo++++XXXOO",
" .X..X+$$$$$$$&&&&&&&&========*------------:::>::>>>>1>>>>>>111:>>>>:::1>::::::::::::====------;-*********@@@@####+o+o++++XXXOOO",
"  ...XO$$$$$$$$&&&&&#&&=====****=;------------>:::>>11>>>>>>1>1>1:>>>>1>>:::::::::====-====----==*===***%@@@#&&#@ooo+o+++XXXXXXO",
"  ...XOO$$$$$$++&&&&#&&#&==****===*;;----------===>11>>>11>>11>:>>>>:>:>>::>>:========-======%*=**====*#@@@##&&&++oooo$+X.XXXXXX",
" ......XX++++++++&&&&&&&&&=****======--------;-==;,;;;-;11111>>>>>>1>:>>--==-==============%%%*****=*%@@@@@@##&++++o+++O.XXXXOOX",
".......XXXX++++++++&&&&&&&##***=**==***=-;;;;;-==-;=-;;;;;;;;;---;---=-;-===============%%%%%%%%%%*-@#@@@@@##++++++o+XXXXXXXOOXX"
};
