/* XPM */
static char *_4633_3d588004cc458c6093e9dd027e4e1a30760b8d4a8930769c883b0eec7ced971c[] = {
/* columns rows colors chars-per-pixel */
"128 128 35 1 ",
"  c #00030F",
". c #000310",
"X c #000311",
"o c #000312",
"O c #000313",
"+ c #000314",
"@ c #000315",
"# c #000316",
"$ c #000416",
"% c #000517",
"& c #000518",
"* c #000519",
"= c #00051A",
"- c #00051C",
"; c #00051D",
": c #00051E",
"> c #00051F",
", c #00061F",
"< c #000522",
"1 c #000622",
"2 c #000624",
"3 c #000725",
"4 c #000726",
"5 c #000829",
"6 c #00082C",
"7 c #000B4A",
"8 c #000F4A",
"9 c #000B4C",
"0 c #000D52",
"q c #000D58",
"w c #001895",
"e c #0027C1",
"r c #003DFF",
"t c cyan",
"y c #B1FFFF",
/* pixels */
"OOXOX....XX++++$+++&&**&*&##%*%%**%**%%%=======--------;;;;-----=;;;;;;;;---===;;;--;;;;-======--=-=&&*&&&&&&++o+++++   ........",
"OOXXX....++++++++##@#&&###===%***%%**-========---==----->1>>>>>>>>1>1111;;--==-;;--;;;,;-=--====*====-**&&&&&&@o++$++o+.. ......",
".XXXX...++++++++###@&&&&&*===*%%%%%--========8=-==:>>>>>>1>>>>>>>::::1111>>111-;;=-;;;;-=-;;,**=**==---*&&&&&&#@o+++++++  ......",
"XXXXXX.++++++++&####&#&=*==-*%%%*-==-======8=8:>::>>>>>:::>>:::::::::11111>1>>>>:>-;;;;---;;;;;**========&&&#####o+oo++++ . ..XX",
"XXXXXX++++++oo#&&#&&8&====%**%%============88e8:88>>>>>::::::::::::::>>>>>>>>>:>>:>>>;-----;;;;;;-=====-==**&#####+o++++++.XXXXX",
"XXX..++++++o@@###&&&8***%*%%%=====-===---88:8e888>>:::>:::::::::::>>>>>>>>:>>>>>:::>1>>-----;;;;;;,*%**=-==-**#####@+++++++XXXXX",
"XOX.+++++++##8##8##%8%%%88%%====-=-==->>>>88ete88>>:>>::<<<<<<<<<<222222>>>>>>>::::1>>>>1>---;;,,;,;%**====-=&&#@@##&+++++++XXXX",
"XXX+++++++#&#88&88%88%888%=======-==>>>>88eetttee882<<<<<<<222888<<2222222222>::>::>1>:>8>>>--;-,;;;;-=-=====-#&#&##*#+++++++XXX",
"..+++$+++###&&888888888e8========-::>>>>>888etee8222<<<<<<22288888<2222222<<22<2211>1>>>81>>>>;;-;,;---%*===*=*&###&&&&+$+++++XX",
".oooo+++#####&8e88e888e8=-88=-==>:::>>>>1>888e8888222<<<<<2228eee8<2222<22<2<2222<<<8>>88818>>18;;;;-----*=******#&&&##&++++$++X",
".ooo++o@@##8&&=8e88e8ee8888-;;-:>>>>>>>>>>888e8822222<<2<<2288ete882<22222<822222<<<2818e88818811---;-;---**==****&&####&++++++X",
"++o+++@@@###8888ee8eete88--=->>>1>>>>>>2282288828222<<<2<3448eetee8443422288822222822288ee8888111>:-------;=****=*=&###&&&++++++",
"oo+++@@@@@#@*8e8eeeete88888888>>>>>>>2222<2228222223834443388etrte884334444842222228888eee8ee1111>>>--------*****===&&&&&&&+++++",
"ooooo@@@@@@%%88eetetteeeee8811>>>8>2222222<<<8<<333833344338eetrtee844344455544422228e8eteee88881>>>>>--------***==*=&&&&&&+++++",
"++oo@@@@@@8888eeeetyyttee88111111182222822<28338338833333448ettrtte8334445566544344888eetetee8>>>1>>>>>-----;;;=8=*%8=&&&&&&++++",
"+o+#####8888eeetttyytee8881111112228222882<3833838e833834488etrrrte88344445555544888eetyytee8822>18>>>11-==;,;;,8*%*8==&8&&##+++",
"++&&&####**8888eetyytee88888811222288228883388388ee83884448eetrwrtee83443565445343488eettee88888218>>111>==-;;,,,8***8=88#####++",
"+#&&*##&==**8ee8tettetee8111122222228824e8888888eee88844388ettrwrtte8844456544543446eeteteee882228e8>11>>::-;-8,,;88*8=888#####+",
"+#&&**&=**=8888eeeteeeeee8>12222222228848e888888ete8e83888eetrrwrrtee88445554453334888eeee8828288eee88>>>8:18;888;e8888e88#####+",
"&&#&&&*=*==88;8e8teee88888128222228448888e88e888et8e888e8eettrwwwrttee854454445543866e88e888522228e8<8>>88:81888888ee8ee8888####",
"&&&*&****=8=;-e8ee888e8188822888224888888e88e88ete8e88e88ettrrw9wrrtte885444435454558858e8384428228<<81888>88e=888eeeete8e*#####",
"&#&*&******;-888e88888811222228884488e8888e8e88ete8e8e88eettrww9wwrttee8855443333358554888348448228<28<88888ee88888eteyte888####",
"#&&&==***=;;-8;88818888822228288888488e888eee8ete8eee88eettrrw799wrrttee88654344354448448334885482228888888ete8=;88eetteeee88###",
"**&-=*===;--8;;88::8:>88222228888888888e88eee8ete8ee88eettrrww779wwrrttee8844454445444848434888488<28e88e8eet8:888eetete8888*###",
"***-==-==;;;--;8>>>>>>28222224888e888888e88eeetteee88eetttrww77777wwrtttee88555445444448845888e88e888e88e8ete8888-8eeee8e8=**###",
"&*--==-=;;,;;,1811>>>2222222454888eee888ee8eeetteeeeeetttrrw7777777wrrtttee8854434444444888488e88e88ee8e8ete88e8::8e88e8888===&&",
"&--==--;,;;--111>:::2222<2244443888eteee8eeeettyeeeeetttrrww7777777wwrrtttee88833344444438e8488e8ee8ee8eeete>e8:88888888;88====&",
"&====--,;-;-;11::::<<22<224444434888eteeeeeeetytttettttrrww77wwwww77wwrrttteee8884555544388ee88eeee8eeeeettee888888-8-8;;=8====&",
"=*****,,;-;;11>>:>222<<<2444444888888ettteeeetyteetttrrrww777wrrrw977wwrrrttteee88845544338ete88eeteeeeettee888ee8>1-;8;;;8=====",
"=*%%%-;;--;11118:<<2<<2<348888888eeeeeettytetytttttrrrwww777wwrtrww777wwwrrrttteee8888543338etee8eteeeettte8eeee88>88;-----*====",
"=*%**-==--;111>8:2<<<2<33334444888888eeeetyyyyyyytrrwwwww77wwrrtrrww7999wwwrrtttteeee88888888etteeeteeeyte8eeete8>8::------*====",
"=***=--=--1>>>8e822<<<3333344444488eeetttyyyyyytttrrrwww99wwrrtttrrww99999wwrrrttttteee8888888etytetetyteeeette888::>>----;;=--*",
"%%*%=---->>>88eee88224333345555888eeeeeeettyyyytrrttrrrwwwwrrttrttrrwww9999wwwrrrrtttteeeee888eetyyetyyeeettee888888888==-;;=---",
"%%*-----;1>>>>8e8<<22488888888888eeeetttttyytttrrrrrwrrrwrrrttrrrttrrrww99999wwwwrrrtttttteeee8eettytytetyyee888ee88>>>==--;;=--",
"***===--1111>>28<<2<358eeeeeeeeeeetttttttrtyrrtttrrrwwwwrrtttrrwrrtttrrww999999qwwwrrrttttttteeeeettyyyyyteeeeee888:>>>>=-;;;==-",
"**-====;1111>2282<<4338etttttttttttttrrrrtytrrrrttrwrwwrrttrrrwwwrrrttrrwww9999779wwwrrrrrtttttttttyyyttteeee8888888>>>>-;;;;;--",
"==--;-=:>111>2222223338etttttttttrrrrrrrrytrrrrrrrtrwrrrttrrwww7wwwrrttrrrwww7977977wwwwwrrrrrtttyyytyyytteeeeeee8888888>;;;;,=-",
"=;;;;--::>>122222233338ettrrrrrrrrwrrrrrrtrrwrrwwrrrrrtttrrww77777wwrrtttrrrww9777777777wwwwwrrrtyyttyttyttttteeeee88>>>1;-;;;,=",
"*;,,;;>:>>>>22222243338ettrwwwwwwwrwwwrrtrrrwrrwwwrrtttrrrwwww97799wwrrrtttrrwwww7797wwwwwwwwrtttyttrytteeeeee88888888>11>--;;,=",
"=,-,;;>>1>>222222333338ettrw9999ww9wwwrrtrwrwwrrrrrtttrrwww799w79909wwwrrtttrrrrwww09777wwrrttrrttrtrtttteeeeee8888888888>-;,;;=",
";,,;,-:>>1:<222<5343338ettrw79099ww0wrrtrrwrwrrrttttrrrww7777777900099wwrrrttttrrrwww7wwwrrrrwrttrrtrttettee8eee88222>11>>-,;;;-",
";;,-;11>>>><<2<<4333348ettrw7999w000wrrtrwwrrrttttrrrwww777777779999777wwwrrrttttrrrwwwwwwwwwwttrrtrrttee8tee88ee888<::1:>>-;--=",
";;;;->>>>>22<<2<3333348ettrw79ww9000wrrwwrrrttttrrrwww7ww7777777999977779wwwrrrttttrrrwwwwwwwrtrwtrrrtteeeetee888e8<88>1>>>-----",
";;-->::>1122<2283333348ettrw9970wwwwwrrrrrttttrrrwww77777777777777977777777wwwrrrttttrrrrrwrrtrwrrwrrtte8eeete888888<<:::>>1--;-",
";;,->1>>1222<2888333448ettrw9977wrrrrrtttttrrrrwww799977777777777797777779777wwwrrrrtttttrrrrrwwrwwrrtte8e8eete83888822>::>>-;--",
"-=;;1>>>1222<<383333348ettrw9990wrtttttttrrrwwww7w79999977777777777777777777777wwwwrrrtttttttrwrwwrrrtte88e88ete83<88<2>>>::;;;;",
"===>1>>>>222<<333333448ettrw9999wrtttrrrrrwwww777w79999779777777777777777777779999wwwrrrrrtttrrw7wrwrtte88e8888ee822282>>>>>1-=-",
"=-=:1>>>2222<<343344438ettrw9999wrttrrwwwww0ww7777w999999997777777777777777979999997wwwwwrrttrw77wrwrtte888e888888822222>>>>:---",
"-==>>>>>2222<3333444448ettrw9999wrttrww990909w997777999999977777777777777777779999999097wwrttrw77rwwrtte848e888888882222>::::---",
"-=->>>>>2222<3333444448ettrw9979wrttrw9999979w9777779000007977777777999997777799999999977wrttrw7wrwwrtte838883883388222<>:>::---",
"--:>>>>>2222<3334344448ettrw9999wrttrw0099077w9777779900000997777779909977779999999779977wrttrw7wwwwrtte8338843833488<2<>:::>>--",
"-=::>:>2222233333334448ettrw9999wrttrw009977777779797999999999097779997777779999799777777wrttrwwww9wrtte844884438334<<<<<::>>1==",
"--:>>>>2222233333344448ettrw9999wrttrw009077799977997999999999079779999777779799999777799wrttrww999wrtte844483333333<22<<::>>>-=",
"-->>::>2222233333334448ettrww999wrttrw799097779779799999999070900779999777779979999997999wrttrww99wwrtte8444833333332<<<<::>>:==",
"--::::>2222233333334448ettrrw999wrttrw999999777777799999990009999977777977779977999979977wrttrw799wrrtte844333333333<<<<<:>>>>--",
"-=::>:>2222<33333834348eettrw999wrttrw799999797977779999990007779977779777779977799999777wrttrw799wrttee844334333333<<<<<:>1:>--",
"->>>>:<2222<383338334888ettrw999wrttrw999999999777777777779777777797779977799777779999997wrttrw799wrtte8843333333333<22<<<>>::>-",
"->>:>>222283383338383858ettrw009wrttrw799779797777777777797777777999999997797777779999997wrttrw799wrtte843334333333332<<22>:>>>-",
"->>::>222288338388888448ettrw09wwrttrw777779779997979777999777999999999997777779979979997wrttrw777wrtte83333443333333<<222>>>>>-",
"->>::>2222<883888e888438ettrw09wwrttrw777777779997777799999977709799999999777779999999997wrttrw777wrtte8433343333333322222>>>>>-",
"-:::>>2222<8ee8e8e8e8348ettrw9wwwrttrw777777777999977909979779799779997779777799999999997wrttrw990wrtte8333343333334322222>>>>>-",
"=:::>>222<88eteeeeee8888ettrwwwwrrttrw779979777777907709997777977777997779777779999999999wrttrw999wrtte83333343333334222<2>>>>>-",
"=:::>>222<288eteetetee88ettrwwrwrtttrw799997777779779097779777777977797779977777999999797wrttrw999wrtte8443334433333422222>>>>>-",
"=::>>>2288888etteyete888ettrwwrrtrttrw999999777797779777777777777777777779977779999999777wrttrw99wwrtte8443334443333322222>>>>>-",
"=:>>>>222888eeettytee888eetrrrrrtrttrw999997777797999999999999997777777777977777999999779wrttrw99wrrtee8444444444333322222>>>>>-",
"=>1>>>22<<<888etyytete88eettrrrtrrttrw999997777009999999999999999777777777777777799779997wrttrw99wrtte884444444448333222<2>>>>>-",
"=:>>>>22<<248etetyyteee4eettrrrtrrttrw99w999999907999999999999977777777777777777777779997wrttrw99wrtte8444444444484552222<>>>>>-",
"=>>>>><<<<248eeettyet8e3eettrrttrrrtrwww997777999999999999997777777777777777777777779999wwrtrrw99wrtte84444444448e85522222:111>-",
"=>>>::<<<228e8eteteeete8eettrrttwwrtrrw9997779999999999999977777777797777777777777779999wrrtrww90wrtte8334444488eee8822222>111>-",
"=:::::<<<22888eeete88eeeeeetrttrwwrttrw9997777999999999999977777777777777777777777777999wrttrw990wrtee83344444448e8552222<>1>1>-",
"-:::::<<228448e8eeeee8eeeettrttrwrrttrw9997777999997999999777777777777777777777777777999wrttrw9qwwrte8833444444448444222<<>>1>>,",
"=:::::<<222248888e8eeteeeettttrrrwrttrw9777777997777999997777799999977777977777999999999wrttrw90wrrte8334444444448442222<<>>>>1,",
"==:::::2222<38338888eeteeettytrrwrrrtrw7777777779977999777777799999977779997777997999999wrtrrw00wrtte83344444444444422222::::>,;",
"==:::::22<<<833333888eetteytyrrwrrwrtrwwww777777779777777777779997777777797977799997799wwrtrww00wrtte8445444444444442222<>::>1,;",
"==:::::<<<<<33888888eeeettyytrrtrwwrtrrw99977797977779777777777777777777777799797999999wrrtrw990wrtee8445444444444442222<:::>>;;",
"==:::::<<<<88888eeeeeeeeetyytttrrrwrttrw99977777777799777777777777777777777779999999999wrttrw99wwrte884554444444444422222:::>>--",
"==:::::<<<<<338888eetttttyyyyrrrwrrrrtrww999997777779777777777777777777777777779999999wwrtrrw99wrrte844445544444444422222::::>==",
"==::::::<<<<<338888eeeettyyyttrrrwwwrtrrw999999977777799777777777777777977777777779900wrrtrww99wrtte85455444444444422222>:::>:==",
"===:::::<<<<<33888eeettetyytytttrrrwrttrw999999997779999997777777777777777777777777999wrttrw999wrtte85555484444444422222>::>:;-=",
"===:::::<<8<<388eeetteetytttttrrttrrrttrww9999999977907777777777777777777777777777779wwrttrw99wwrtee85554484444444422222>::>>==-",
"===:::::<<8<<8888eeeeeettettetrrrrwwrrtrrw9999999997777777777777777777777799777777777wrrtrrw9wwrrte885654484444444222222>::>:--=",
"===::::::8e8<<33888eeettteteettrrrrwwrttrww99999997999797777779777777777797977777777wwrttrww7wrrtte8454544844444842222811:>>>-=-",
"====:::88eee883388eeeetteeteeettrwwwwrttrrw99999997999997777799977777777779997777777wrrttrw09wrttee86544488845388422288811>>----",
"====:::::8e8<<<88eee8eteeeteeettrwwwwrrttrw77999977999777777779777777777777777777777wrttrrw0wwrtte8855854888458e82222281>>>>----",
"====::::::8<<<<38ee8etteeteeeeetrrw7wwrttrww777977777777779977777777777777777777777wwrttrww0wrrtee86558558e8548e828<22>1>>>>----",
"--===:::::8<<<<8e888eteeetee8eettrwwwwrrtrrw997777777777977977777777777777777777777wrrtrrw0wwrtte886658858e858ee882222>>::>-----",
"=====::::::<<<<8888eeteeee8e88eetrrwwwwrttrww9997799977779999997777977777777777777wwrttrww9wrrtee866658e88e88ete88222811>:>==---",
"======:::::<<<88338ete8e8e8e888ettrww9wrttrrww00979900999997900097997777777777777wwrrttrw9wwrtte8886658e88e8etee882881111>-====-",
"%=====:::::<<8<<<88et88e8e8e888ettrrw9wrrttrrw00099900999797900099077777777777777wrrttrrw9wrrtte86888888e8eeete8888821111>--===%",
"%=====::::::<<<<<88ee888888e888eettrw9wwrrttrww099990099997790090000777777777777wwrttrrww9wrttee8658e888e8eetee888e8111111-----*",
"%======::::><<<<<<8e838388888888eetrww9wwrrtrrww9999997977777000000077779797779wwrrtrrww9wwrtee885558e8eeetetee8ee82111188--;--*",
"%%=====::::::<<<<<883383884838888etrrww9wwrttrrw9997777799977000000907777797779wrrttrww9wwrrte88885858eeeetete8ee82888881;;---**",
"%%======:::::<<<<<833833383838888eetrrw99wrrttrww99977977997900qqq009977799779wwrttrrw99wrrtee85558888eteetyeete88888111;---;;=*",
"%%%=====::::::<<<<8<48838833888888ettrww7wwrrtrrww777779997779000009797999977wwrrtrrww9wwrtte88888888eeeteyyyte888>11111----;==*",
"%%%======::::::<<<<<<8888838e88338eetrrww7wwrrtrrww7777779779000000999999997wwrrtrrww9wwrrtee88888eeeettttyyteeeee88111;----;===",
"%%%%=====:::::8<<2<<8888888ee883388ettrrw77wwrttrrww77777999909097770997009wwrrttrww90wrrtte8855558888eeyyytteee88888888----=**=",
"%%%%======:::::888<<88e8e8ete833338eettrww77wrrttrrww977979990909779997799wwrrttrrw99wwrttee855555888eetttytette888111;-----**==",
"**%%%======::::>8e8888e8eeete8883888ettrrww7wwrrttrrww9779799777977999777wwrrttrrww9wwrrtte88558888eeetteyeteeete8881;;;---***==",
"**%%%======::::::8eee8eeeetee8888388eettrrw77wwrrttrrww97799777777797777wwrrttrrww90wrrttee8555555888eeeeteeteeeee8888;;;--*=***",
"*%%%%%======::::::eteeetette88ee88388eettrww79wwrrttrrww977997777797777wwrrttrrww99wwrttee885555558888eeteeeete8ee88;;8;;;=====*",
"@%%%%%%======::::::ettettyeeeee8834388eetrrww77wwrrttrrww7979977799977wwrrttrrww99wwrrtee885555555888e8etee8eee888e88;;;;======&",
"@%%%%%%======::::888eeyyyttte8844343388ettrrww97wwrrttrrww99797799999wwrrttrrww97wwrrtte8855445858e5888ete8e8ee881188;;;;======&",
"@@*%%**=======:88eeeettyytteeee84443348eettrrww79wwrrttrrww777799979wwrrttrrww99wwrrttee8554433588e8888ee888888e88;;88;;=*====&&",
"@@@%%===*======>8888eetytyeee88888843488eettrrww77wwrrttrrwww77799wwwrrttrrww77wwrrttee8855444488ete882ee8888888188;;;8**====&&&",
"#@@%%*==*=======>88eettttettee88443334488eettrrww77wwrrttrrrww777wwrrrttrrww77wwrrttee884444488eetttee8e88888188;;;8;;-***===&&&",
"@@@@%%%%*%===-=88ee8eteteeeette88433334588eettrrww77wwrrtttrrwwwwwrrtttrrww77wwrrttee884443444588ete88288881811;8;;;;;****==&&&&",
"@@@@@%%%*%%===888:8eteete8eeeeeee8334455488eettrrwww7wwrrrttrrrrrrrttrrrww7wwwrrttee88544434448888e828281811811;;;;;;==**==&&&&&",
"@@@@@%%%**%*--===8eteeeee88e8888888344554488eettrrrww7wwwrrtttttttttrrwww9wwrrrttee884544343332282e88211181181;;;;-;=======&&#&&",
"@@@@@@%%**%*=;8=-8ee88e8e88e8<222<<3585554488eetttrrwww7wwrrrtttttrrrww0wwwrrtttee884434444432282282811118111;8;;;-=======&&*&&&",
"o@@@@@@%*%*=8-8==e8888e88e888<2<2<2<2844443388eetttrrrww7wwwrrrrrrrwww9wwrrrtttee884444444422222228218111811;;8;;;;======&&&*&&+",
"o@@@@@@@**8**8e=88888888>88:8<22<<2<8e834333388eeetttrrwww9wwwwwwwww9wwwrrttteee883444444<222222222111111818;;8;8;======&&&&**&$",
"oo@@@@@&#**888e88888-888118::8>22<88eee8843333888eetttrrrwww9979090wwwrrrtttee888433334422222222211111111;;;8;e8;=8====&&&#&**++",
"ooo@@@@##*888ete88=---8-1118:>>>22228e822223333388eeetttrrrwwwwwwwwwrrrttteee8844443322222222222>>>>>>>>;;;888e888=====&&&#&&+++",
"oooo@@@#@88eetttee888-8;;111>>>>>>222822222<<3333888eettttrrrrrrrrrrrttttee88855556<22222<<<22>>>>>>>>>--;888ete888**=&&&&&&++++",
"ooooo@###@888ete8%-----;;;111>>>>>>228222222<<<<33388eeettttttttttttttteee886555252222222<<22>>>>>>>>>;-888eetttee888&&&&&&+++++",
"o+ooo######@88e8888*---;;;;->>>>>>>>>2222222<<2<<<<5888eeeettttttttteeee88884222222222<<222:>>>>>>>>-----;;88ete88==&&&&&&&++++$",
"oooooo&####888e88=***--;;;;-->>>>>>>>>>2222222<<<<22228888eeeeeeeeeee8888<<e8282222222222>:>:>>>>>>----==88888e88*88&&&&&&++++$$",
" ooo+o+###8#@88*8*****;;;;;---->>>>>>>>>>12<<<<22222222228888888888888<<8<8e882222222<>>>>>>>>>>>---=----=%%88e888&&&##&&+++++$X",
" oo+++++####@@8**=*=***;;;;----->>>>>>>>>:::2<2222252222222222<<<<22<<<2<8ete882222<>>>>>>>>>>>>--=------%%8%888=8*&&#@#++++++$O",
"  oo+++++####@8#&========;;;------>>>>>>>::::>>22<22222222225<<<<222<<88eetttee88::>>>>>>>>>>1;--===---*****==8&&*8##&&+++++++XX",
"   o++++++#####&&&========;;-------->>>>>:::::>:::><222255222222<2222<<288ete88:>::::::::>>>;;;;====--********8*&*##@#+++++++XXX",
"   .+++++++###&&&&&=========;--------->>>:::::::>:::::11222225222<<<<222888e88888::::::>>>---;;;-===%********&**&&##@oo+++++XXOO",
" . ..+++++++##&&&&&&=========--;--------->::::::>>::::111>1>11>>>>:::::8>8>e:8>8::::::>--------;--=%********#@**&###ooo++++XXXOO",
" .X..X+$$$$$$$&&&&&&&&========*------------:::>::>>>>1>>>>>>111:>>>>:::1>::8:8:::::::====------;-*********@@@@####+o+o++++XXXOOO",
"  ...XO$$$$$$$$&&&&&#&&=====****=;------------>:::>>11>>>>>>1>1>1:>>>>1>>::8::::::====-====----==*===***%@@@#&&#@ooo+o+++XXXXXXO",
"  ...XOO$$$$$$++&&&&#&&#&==****===*;;----------===>11>>>11>>11>:>>>>:>:>>::>>:========-======%*=**====*#@@@##&&&++oooo$+X.XXXXXX",
" ......XX++++++++&&&&&&&&&=****======--------;-==;,;;;-;11111>>>>>>1>:>>--==-==============%%%*****=*%@@@@@@##&++++o+++O.XXXXOOX",
".......XXXX++++++++&&&&&&&##***=**==***=-;;;;;-==-;=-;;;;;;;;;---;---=-;-===============%%%%%%%%%%*-@#@@@@@##++++++o+XXXXXXXOOXX"
};
