/* XPM */
static char *_e8d7f948d144357ed290e72bc8a7973A4VJjhZ7VAyVH3YC[] = {
/* columns rows colors chars-per-pixel */
"40 40 245 2 ",
"   c #020203",
".  c #0A0301",
"X  c #030609",
"o  c #040A0D",
"O  c #0A0A0A",
"+  c #190B00",
"@  c #03100A",
"#  c #000014",
"$  c #040E12",
"%  c #090E10",
"&  c #01011C",
"*  c #010C1C",
"=  c #051115",
"-  c #091215",
";  c #0C1917",
":  c #05141A",
">  c #09161B",
",  c #06181E",
"<  c #0B1A1D",
"1  c #121919",
"2  c #13201F",
"3  c #010728",
"4  c #031520",
"5  c #041B22",
"6  c #0B1D22",
"7  c #02182A",
"8  c #111E22",
"9  c #181822",
"0  c #0D0233",
"q  c #031A35",
"w  c #0C2126",
"e  c #04222B",
"r  c #0C252B",
"t  c #09282D",
"y  c #14262B",
"u  c #17282B",
"i  c #1B322C",
"p  c #022335",
"a  c #042734",
"s  c #0C2B33",
"d  c #042C3B",
"f  c #0B2C3A",
"g  c #122C33",
"h  c #1D2C33",
"j  c #152D3D",
"k  c #063439",
"l  c #0C333D",
"z  c #153235",
"x  c #1A3234",
"c  c #14343B",
"v  c #1C343A",
"b  c #163C3E",
"n  c #1B3B3C",
"m  c #202F34",
"M  c #233939",
"N  c #064637",
"B  c #25473E",
"V  c #43503C",
"C  c #000F47",
"Z  c #032A46",
"A  c #033443",
"S  c #093541",
"D  c #033A45",
"F  c #0D3B45",
"G  c #02354C",
"H  c #003E4C",
"J  c #0D3D4B",
"K  c #143C43",
"L  c #183B48",
"P  c #0C2C50",
"I  c #003D54",
"U  c #033A58",
"Y  c #263D43",
"T  c #00006B",
"R  c #002964",
"E  c #003F65",
"W  c #03454E",
"Q  c #194647",
"!  c #13414B",
"~  c #1B444A",
"^  c #095A4B",
"/  c #004353",
"(  c #0D4C54",
")  c #01425C",
"_  c #014B5C",
"`  c #084858",
"'  c #144A55",
"]  c #1B4B55",
"[  c #1B4C59",
"{  c #01545D",
"}  c #005F5F",
"|  c #1A5459",
" . c #264849",
".. c #344D44",
"X. c #2B574A",
"o. c #37594B",
"O. c #234954",
"+. c #275457",
"@. c #3A5956",
"#. c #2D625D",
"$. c #3A6A59",
"%. c #004563",
"&. c #014C63",
"*. c #124963",
"=. c #035466",
"-. c #00556B",
";. c #175969",
":. c #064978",
">. c #005473",
",. c #145B76",
"<. c #2C5E61",
"1. c #234C74",
"2. c #06696A",
"3. c #196366",
"4. c #03687A",
"5. c #176576",
"6. c #097C7D",
"7. c #19777C",
"8. c #266569",
"9. c #376B67",
"0. c #3A776B",
"q. c #266674",
"w. c #277678",
"e. c #377378",
"r. c #444F49",
"t. c #44685B",
"y. c #44745A",
"u. c #636D57",
"i. c #435B60",
"p. c #4A6A68",
"a. c #457768",
"s. c #4D7374",
"d. c #467976",
"f. c #567A74",
"g. c #627B71",
"h. c #2D8A79",
"j. c #37847C",
"k. c #4A856A",
"l. c #438478",
"z. c #578777",
"x. c #4B997D",
"c. c #5C927E",
"v. c #698F71",
"b. c #69937E",
"n. c #69AC79",
"m. c #0F5783",
"M. c #026B82",
"N. c #01678A",
"B. c #037885",
"V. c #167081",
"C. c #007798",
"Z. c #177F98",
"A. c #2D7B87",
"S. c #008898",
"D. c #198295",
"F. c #059798",
"G. c #1C949D",
"H. c #308F8F",
"J. c #138AA6",
"K. c #339BA6",
"L. c #19ABB9",
"P. c #33A8B0",
"I. c #4B8D85",
"U. c #558D87",
"Y. c #48978A",
"T. c #57958A",
"R. c #4B9195",
"E. c #5C9B96",
"W. c #67998A",
"Q. c #6F988D",
"!. c #59A68C",
"~. c #4EAF98",
"^. c #57A597",
"/. c #6FAB8D",
"(. c #6AAA99",
"). c #78AB98",
"_. c #78B79A",
"`. c #4899A4",
"'. c #54AEAD",
"]. c #52A8B4",
"[. c #68A8A8",
"{. c #69B6A8",
"}. c #7AB9A9",
"|. c #6CAFB1",
" X c #75ABB4",
".X c #78B9B9",
"XX c #5DC5BF",
"oX c #7FCFAE",
"OX c #7BC5B6",
"+X c #7CD6B7",
"@X c #00B7C1",
"#X c #2DB2C9",
"$X c #71BCC3",
"%X c #0ACBD5",
"&X c #30CAD7",
"*X c #32CCEB",
"=X c #59C1C4",
"-X c #63CECA",
";X c #77C2C8",
":X c #7DD6D9",
">X c #56D2E2",
",X c #72DDE0",
"<X c #47E3E1",
"1X c #66E5E5",
"2X c #819F8A",
"3X c #85A593",
"4X c #87B698",
"5X c #88B7A6",
"6X c #93B8A9",
"7X c #87B8B4",
"8X c #A1BEB6",
"9X c #8AC79F",
"0X c #89C6A8",
"qX c #96CEAF",
"wX c #87C9B5",
"eX c #91C2B5",
"rX c #8CD6B7",
"tX c #ACD6B4",
"yX c #B1D6BA",
"uX c #83BAC3",
"iX c #84CBC7",
"pX c #8CD5C5",
"aX c #9BD7C5",
"sX c #87D6D5",
"dX c #ABDAC6",
"fX c #B4DCC3",
"gX c #A3D9D6",
"hX c #97E2D9",
"jX c #ABE4D9",
"kX c #8DEDEA",
"lX c #99F0F2",
"zX c #B8ECE6",
"xX c #AEF0E8",
"cX c #B6F8F2",
"vX c #C1DBDB",
"bX c #C8EBEC",
"nX c #CAF0EE",
"mX c #C7F7F5",
"MX c #D5FEFD",
"NX c #DCFEFE",
"BX c #E6FCF3",
"VX c #E3FEFC",
"CX c #EBFEFE",
"ZX c #F2FFFE",
"AX c #FDFFFF",
/* pixels */
"X   X $ o = = $ o o $ : = : $ $ $ $ X %   M 8 X $ $ o $ o $ $ o $ o X X       X ",
"X X o $ = o o   o : 5 : $ o O O X : 4 > 5 g 6 : 6 4 , : : o X : $ o $ o o X   X ",
"X o o $ $ $   y , : = -   $ : r f s r < ; o > < - $ : > % Z a % : = = $ o o X X ",
"X @ = = o o   v 8 X X   t f +.g w * 1 . % w 6 o , - % : . *.J   : : $ , : o o X ",
"o $ $ $ o $ 6 h o = 6 F L s 2   6 M y c l t 1 c = w , > > r - O o = = = = $ $ o ",
"$ = = X , 5 > x q 5 l K     p 8.o.y.o.c l . J.#Xf J l 6 : - 5 % $ o $ = = $ $ $ ",
"$ $ X o , = o   V.( .   i a.a.Q i p F K ! f D.L.0 F S l F s - 5 $ = o = = $ $ $ ",
"$ $ X : , - * G.&X;.  t.a.8. .a W L O._ J K ( ] < s y e l ! e h v o = X o = $ $ ",
"$ X = 5 ,   ` &X*Xm.I.}.Q e d ` O.W =.q.w._ 3.=.+.u g c 6 ; ;.;.. w = = = $ = $ ",
"$ X : : % = f P :.<.k.X.3 ! | 8.Y.0XjXyXwX0X_.U./.j.( 7 h < f J > ; ,  .= X = = ",
"X   : =   l !   d.T.a.v S L H.0XaXOXeX}.].rXwX(.(.0XU.a.& 9 ; > l r < , : o o $ ",
"  h 6 $ - J K   5X0XN 7 Q H.rX/.d.d ^ H ( / { ;.T.3X2X9X`.B.+ r f f < < < : : o ",
"  h y X a F u   f.z.# / w.iXQ.-.>.N.H.4.=.0 G [ ( / 8.4XdXB.: g % f l = , = = X ",
"X $ , $ l ( ; k }.p.p w.qXQ.-.V.4.R.dX7X).5Xw.H +.Q / B.eX5XD g y 5 ~  ., y o = ",
"X 6 , - F J   o.6Xi.A '.qX4.M.Z.'.+XjX[.R.{.rX~.M.`  ./ P.{.d.Z z - s t v v   = ",
"o 5 5 - ' K   p.}.I I ^.7XN.>.|.;X@XlX=XN.A.(.0X).} =.[ -.h._.9.d w 6 f e   : $ ",
"$ 5 $ a J c : @._.9.=.(.'.C.P.-X<XnXVXkX%XK.M.Q.yXY.q._ ] 4.(.I.I z O F l % : = ",
"  Y u , ' K 4 k.eXS _ 7X[.S.].zXVXVXBXZXzX&XP.C E.OXY.4.[ 5.I 4Xp.3 1 f l O > : ",
"X s . ,.P.6 p 9.dXi.:.XX].N.,XBXCXmXZXCXAXbX%XZ.:.0X{.q.-.3.%.c.z.d 8 : +.u   , ",
"% 5 $ a ;.S 7 V fXb.H.rXgXsXxXVXNXAXAXAXAXCXlXiXn.zXdXY.a.e.e.{ j.S 6 6 K r o : ",
"= e 6 . J ' i W Q.{.2. XvX:X1XNXMXVXAXAXNXVXiXR.#.8XtXH.e.e.5.$.T./ 8 8 c t X > ",
"$ s 6 X  .K n q @.oX0.R .X:XsX1XmXNXAXVXMXmX:XC.T }._.!.5.4.A @.T.r r 4 K s X = ",
"O e s   $.$.A  .3 _.{.E S.OXnXxXkXMXCXmXmXzX].H.A |.+Xx.5.;.&...E.z 6 ; f z O $ ",
"X r a X M $.O.N O.^ '. X` E uXzXnXmXMXxXcXjX$X&.U pX5Xh.H.,.G o.U.d > ; s l X % ",
"$ : F s # B | S Q y w.OX).s.M.C.&X<XcXcXgXsX`.G _ rX}.l.7.3.q p.Q.a m < g s X X ",
"$ O s f : x +._ j O.] F.|..X|. XuXhXBXmXiXP.,.%.`.pXT.&.5.c 3 a.z.3 M > r 6 % X ",
"$ X 6 S :   f.'.3 Q K q.7.{.OX{.pXhXvXsXF.5.J 2.dX2X3.;.K K q.!.5 t * 8 t w o X ",
": $ X n O.X p.$XE.H p L 8.l.D.Y.6X'.).O.L ) 5.7X!.0.0.5.K / H.W.7 z 6 r < , o X ",
": :   8  .c   s.|.~.5.Z q ) ( ] O.] l./ { 6.6X).t.p.4.~   G.;X+ 5 8 > 6 8 M   $ ",
"$ , >     l ' p X X./.g.I.<.=.U Z R 9.I.5XrXc.& ( 7.;.O.-.lXlXS.L w - ; : < X @ ",
"$ : 4 $ % - t ;.;.q r.z.(.^.5X(.[.E.rXrXtX8.R c 5.| u C 2.zX1XS.0 u j % : $ X o ",
"o $ = 6 : o O r ( ] d U X.X.f./.).!.9XW.Z `.>XK.' y 7 ..v.s.1.X < 6 w   : $ X o ",
"o - o M < < :   % l F e.q.;.p d W U 3.&.5.P.&X+.1 g N v.u.& l w > 6 % M : X X o ",
"X X $ X : < s 6 ; . 6 4 D l [ ! ;.5.( [ K a ( . 3 n y.N X g s % > $ - 8 = X o X ",
"$ X o $ = > t f s >   % . - t t w w 1 O < 1 & q #.a...# y > > ; : $ $ : @ X X X ",
"o o X X X $ = , t k L u e < . - -   X 6 a 7 9.k.y.i L x , - : - O $ $ : o X X X ",
"X o $ o o o =   h n O.v l S J ! A X.y. .$.$.$.o.& : r > - $ % X $ = = $ X o X @ ",
"X o o @ o o o X ; %   5 < l S s S Q +.K b z   X w 6 > % $ $ o X , : o o o X X X ",
"X X @ o $ o o o X X $ % > o X = =   h h   4 6 6 : , $ o $ X o = $ $ o X X   X X ",
"X     X X o = o = $ o o X $ = = $ : X o = = $ $ o o $ o X $ = = $ $ X X   X X X "
};
