/* XPM */
static char *_00cee02dad046b2a3984b94ba031d2aXKPSZ7pjvta3ZkYX[] = {
/* columns rows colors chars-per-pixel */
"40 40 229 2 ",
"   c #370300",
".  c #3B0300",
"X  c #430300",
"o  c #4B0300",
"O  c #540300",
"+  c #5C0400",
"@  c #510B00",
"#  c #5C0900",
"$  c #630300",
"%  c #6B0300",
"&  c #670A00",
"*  c #720400",
"=  c #7B0200",
"-  c #780A00",
";  c #641100",
":  c #830200",
">  c #8A0300",
",  c #830A00",
"<  c #8B0D00",
"1  c #930300",
"2  c #9C0300",
"3  c #940D00",
"4  c #9C0C00",
"5  c #871500",
"6  c #951300",
"7  c #9B1200",
"8  c #A50400",
"9  c #A20C00",
"0  c #AC0900",
"q  c #B20000",
"w  c #BD0000",
"e  c #BB0603",
"r  c #A21300",
"t  c #AC1500",
"y  c #A41A00",
"u  c #AC1A00",
"i  c #B31500",
"p  c #B31B00",
"a  c #BD1B00",
"s  c #AE2000",
"d  c #B72301",
"f  c #BA0023",
"g  c #C40100",
"h  c #D60303",
"j  c #C81200",
"k  c #C31D00",
"l  c #CB1F00",
"z  c #D21C00",
"x  c #DB1900",
"c  c #C9001A",
"v  c #D60114",
"b  c #E70100",
"n  c #F80301",
"m  c #EB1503",
"M  c #E21B00",
"N  c #F81707",
"B  c #EB1217",
"V  c #C62300",
"C  c #CC2500",
"Z  c #C72C00",
"A  c #D22500",
"S  c #DE2200",
"D  c #D42A00",
"F  c #DC2D00",
"G  c #CB3400",
"H  c #D83700",
"J  c #D0291A",
"K  c #E32400",
"L  c #E32E00",
"P  c #E92C02",
"I  c #FF2401",
"U  c #F62901",
"Y  c #E43300",
"T  c #EC3401",
"R  c #E63A00",
"E  c #EB3B00",
"W  c #F43400",
"Q  c #FE3500",
"!  c #F43B01",
"~  c #FC3C00",
"^  c #E6201F",
"/  c #F42D16",
"(  c #EB391A",
")  c #F23519",
"_  c #EC0020",
"`  c #F10020",
"'  c #DB2524",
"]  c #EC3722",
"[  c #DF4800",
"{  c #E54300",
"}  c #EB4500",
"|  c #F64601",
" . c #FD4301",
".. c #FE4D02",
"X. c #EA5200",
"o. c #F65300",
"O. c #FD5400",
"+. c #F65B00",
"@. c #FF5C01",
"#. c #ED4316",
"$. c #F24A16",
"%. c #F75A18",
"&. c #FE6300",
"*. c #F46C00",
"=. c #FE6D01",
"-. c #F86308",
";. c #FF7401",
":. c #F97105",
">. c #FF7C00",
",. c #FE7D09",
"<. c #FA6616",
"1. c #FE791B",
"2. c #F96722",
"3. c #F97623",
"4. c #FE8400",
"5. c #FF8C00",
"6. c #FD860C",
"7. c #FF9301",
"8. c #FF9B01",
"9. c #FF920B",
"0. c #FF871A",
"q. c #FE9B14",
"w. c #FD991B",
"e. c #FFA300",
"r. c #FFAC01",
"t. c #FFAD09",
"y. c #FFB300",
"u. c #FFBC01",
"i. c #FFBA0C",
"p. c #FFA715",
"a. c #FFA21D",
"s. c #FFBA16",
"d. c #FFB518",
"f. c #FFBB1E",
"g. c #FE8923",
"h. c #FFAA21",
"j. c #FFBB24",
"k. c #FFAF32",
"l. c #FFC301",
"z. c #FFCB01",
"x. c #FFC80D",
"c. c #FFD400",
"v. c #FFDC00",
"b. c #FFD30E",
"n. c #FFDE0D",
"m. c #FFC314",
"M. c #FECD17",
"N. c #FEC31D",
"B. c #FFCF1A",
"V. c #FFD314",
"C. c #FFDC13",
"Z. c #FFD71D",
"A. c #FFE400",
"S. c #FFEC01",
"D. c #FFE30A",
"F. c #FFF302",
"G. c #FFFC00",
"H. c #FFFA0E",
"J. c #FFE313",
"K. c #FFEE14",
"L. c #FFE21D",
"P. c #FFEC1D",
"I. c #FFF214",
"U. c #FFFD16",
"Y. c #FFF31D",
"T. c #FFFD1C",
"R. c #FFC524",
"E. c #FFCA23",
"W. c #FFCB2A",
"Q. c #FFDB23",
"!. c #FFD82B",
"~. c #FFC637",
"^. c #FFD63B",
"/. c #FFE225",
"(. c #FFE929",
"). c #FFF322",
"_. c #FFFA24",
"`. c #FFF62C",
"'. c #FFFE2B",
"]. c #FFE334",
"[. c #FFEC33",
"{. c #FFE73B",
"}. c #FFF336",
"|. c #FFFE34",
" X c #FFFE3B",
".X c #FFBE6B",
"XX c #FFCB4C",
"oX c #FFD84B",
"OX c #FEDC5C",
"+X c #FFE746",
"@X c #FFEB4B",
"#X c #FFF943",
"$X c #FFFD4B",
"%X c #FFEA58",
"&X c #FFFE53",
"*X c #FFF25A",
"=X c #FFFD5A",
"-X c #FFD87D",
";X c #FFED69",
":X c #FFF265",
">X c #FFFC62",
",X c #FFF368",
"<X c #FFFC6A",
"1X c #FFEA76",
"2X c #FFFF76",
"3X c #FFF778",
"4X c #FFDE9C",
"5X c #FFE98B",
"6X c #FFF487",
"7X c #FFFB84",
"8X c #FFFD8D",
"9X c #FFEC98",
"0X c #FFF593",
"qX c #FFFA93",
"wX c #FFF49A",
"eX c #FFFC9B",
"rX c #FFEDAB",
"tX c #FFFEA5",
"yX c #FFF6A9",
"uX c #FFFDAB",
"iX c #FFFDB4",
"pX c #FFF3BD",
"aX c #FFFDBC",
"sX c #FFF2C4",
"dX c #FFFDC4",
"fX c #FFFECB",
"gX c #FFFFD4",
"hX c #FFFFDB",
"jX c #FFFEE1",
/* pixels */
"        . o o o O o O $ % O + + $ + C k % + $ + + $ % o % d a * o X X . .   .   ",
"  X O + +   o + * 3 = % 3 a < , * X Z  .l - < & + 3 % y T A : + + o o X X . .   ",
". X o % u y * + O t k 1 * R T e p 3 h ;.&.j i 5 p a 8 Q T > % o O $ o X X . X . ",
"  X o   % V L 8 % = L A i { 4.#.^ ] -.d.C./ ] c ( S +.@.k : * 6 7 o $ * o o X . ",
". . O % O % L ! e > H @.b / B.y.5.l.A.S.F.l.l.r.c.%.1.4.M G j D < p p $ O X $ X ",
"X o O % 4 * 2 ..O.V K p.q.7.S.*XwXiXdXaXdXdXiXwX=Xc.v.M.1.E +.w M T > O o * - . ",
"X O + o u C p U e.4._ l.F.1XdXfXiXtX8X2X2X3X9XiXfXaX7XS.c.f.*.+.&.w $ $ 6 u $ X ",
"o + + = = L Y ! y.Z.u.:XdXfX6XE.l.F.G.U.|.F.u.8.+X7XaXfX,XG.f.y.*.q a F L , % O ",
"@ O + 4 0 H ..W E.G.qXhXqXU.e.y.Y.U.=X X&X XK.s.R.F.A.0XfX0XF.Q. .+. .W 9 9 * O ",
"% * + 3 F } >.w.S.wXjX8XA.'.f.l.S.v.I.S.G.I.e.v.'.!.J.u.^.aXwXS.f.7.| j D 7 o # ",
"V 9 * % [ W R.S.wXdX&XZ.y.G.G.S.=.n 4.r.u.4.=.v.(._.G.m.7.oXaXwXF.w.-.&.z : * o ",
"W W A 2 [ 0.v.3XfX|._.F.y.z.v.A.l.u.y.c.F.v.S.c.g./.z.y.L./.}.gX3Xv.f.=.q * % * ",
"r T O.E m c.I.dX;Xv.$X$XF.8.=.@.u.l.r.l.v.G.z.>.O.8.l.=.u. XA.tXdXU.y.! > y a : ",
"O > } y.2.z.eXiX8.x.|.=XI.c.J.m.u.[.|.A.y.e.&.e.c.y.z.u.Q /.E.A.tXeXr._ } Y 1 % ",
"% @ w 9.c.].aX=X7.t.v.y.4.j.}.V.v./.s.e.l.r.z.A.z.r.7.7.n u.D.7.oXfXR.y.6.K D t ",
"a 7 q %.S.7XyXG.P.5...-.8.9.=.;.8.4.>.z.u.y.l.>...e.7.;.4.r.G.<.r.dX7XD.<.O.A 1 ",
", C j %.v.uX-XA.U.F.l.l.l.v.W.Q.y...6.r.4.r.O. .=.v.u.7.l.4.D.B.c.0XiXl.w.E l < ",
"$ r | :.v.aXXX4.V.v.y.>.;.;.(.).>.=.;.N e.8.;.8.l.'.(.l.F.e.]. Xf.XXaXS.6.W G > ",
"C p N y.=XsXl.c.i.Q ,.!.v.7.>.u.=.e.@.>.S.5.y.c.z.(.C.y.v.l.j.{.&.C.dX%Xe.-.w 7 ",
"T ~ <.z.>XsXJ. Xc.l.[. Xc.l.r.y.~ z.z.8.c.8.8.7.7.4.o.Q >.5.x.s.;.c.dX:Xe./ Z $ ",
"4 E 6.l.%XhX2XA.i.F.D.D.y.@.r.7.@.v.l.=.&.8.>.v.F.y.5.4.O.e.P.V.%.e.dXOX>.%.: # ",
"o , v X.%XjX`.z.F.c.y._.n.@.O. .r.y.4.y.u.;.I r.S.P.v.z.y.J.$X$X{./.dX:Xu.v & # ",
"t Z T t.}.gX@Xv.|.h.8.|.q.7.z.l.l.4.C.|.}.m.8.l.z.}.|.S.v.'.{.W.'.>XdX^.*.P p * ",
"6 d H #.l.iX2X[.~.9.>.S.>.z.F.S.8.4.n.D.#X|.A.r.r.z.F.t.u.$X[.y.p.-XdXF.p.@.W C ",
"$ O 2 v O.rXiX*Xl.4.0.(.>.z.z.u.>.&.5.y.z.u.8.;.:.8.].Q.=.m.8.k.u.rXrX7.1.H 9 < ",
"i V A $.u.,XgX@Xq.9.8.!.7.5.;.r.;.I @...7.u.=.@.8.z.P.z.;.4.4.(.(.fX.Xb J u $ O ",
"> F W ;.q.y.pX7XA.S.h.B.y.I 8.u.Q 4.l.l.u.7. .u.z.r.4.;.y.c.m.G.yXfXl.B t $ % + ",
"O = i A c } 1XhX>X7X7X'.8. .l.z.4.c.|.J.8.Q 4.7.=.@.8.v. Xt.E.H.hX5X8.%.V : * % ",
"+ % % * A 1.c.fXaXG.Y.u.,.y.u.z.r.u.S.7.O.I @.4.;.7.u.b.~.g.l.sXsXz.<.E D t > : ",
"O * 4 k H B u.|.fX8XA.S.v.l.r.&.;.y.e.4.=.7.y.4.~ 4.z.~.OX+XuXhXR.o.<.| z r = O ",
"O + % 5 8 *.N.z.oXjXiX=X=XS.t.7.z.c.r.r.c.A.e.7.n.).$X#X;XdXhX$Xz.) g u V t = % ",
"O + % 3 x =.*.` u.$XaXiX<XF.a.B.H.l.@.4.v.A.A.T.=X<XoXy.9XgX@Xc.E.7.m s % % = % ",
"$ : > a L l w *.R.A.#XfXaX<Xc.5.l.q.m.f.j.).F._.K.S.oXpXaX#Xl.] +.+.W T 9 * O $ ",
"o % : r < : P =.*.a.A.A.0XdXaX5X~.A.G.S.F.G.F.*XqXtXdXeXS.A.a.h 0 8 k L A > + X ",
"X o + O X a W g b 5.p.q.A.D.8XaXdXiXuXuXyXuXdXfXaX5Xa.z.m.<.6.Y 1 ; * : p 3 O o ",
"X X o + 6 V 1 V  .o.M =.g.y.c.z.+X1X9X4XeXwX;X+XS.e.n 2.4.b U T 8 : O O O * % . ",
"X X o & 6 $ - Y i $ k ..! ,.) 0.y.8.E *.l.4.y.6.0.<.e F L 1 D W t > % o X @ + X ",
". . X X   o t r   y Y l A q F O.:.$.f 3.' ^ 0.h H H : 3 A 4 = A i * O o X   . . ",
"  . . X O * % O * u < % % u ~ P Q D - Y 7 G ~ r 7 z = o 3 r o : p = + X . . .   ",
".   . . . X X O + . o % : D A u W V O p , r P r o 6 1 # o % % O * * * o . .     "
};
