/* XPM */
static char *eca1f3013ff042bc9b72ea03f7e815a03DQwggUZibYTN8tL[] = {
/* columns rows colors chars-per-pixel */
"40 40 227 2 ",
"   c #000000",
".  c #000C02",
"X  c #00020D",
"o  c #000C0C",
"O  c #021706",
"+  c #000314",
"@  c #000B15",
"#  c #00051C",
"$  c #0C001A",
"%  c #000B1C",
"&  c #011414",
"*  c #03141C",
"=  c #041A1A",
"-  c #00210C",
";  c #002610",
":  c #00231A",
">  c #000423",
",  c #000B24",
"<  c #00032A",
"1  c #000B2C",
"2  c #001323",
"3  c #001C23",
"4  c #00132E",
"5  c #011C2B",
"6  c #0C1928",
"7  c #000132",
"8  c #000A33",
"9  c #00013B",
"0  c #0C003F",
"q  c #000C39",
"w  c #11003D",
"e  c #001535",
"r  c #011B32",
"t  c #001439",
"y  c #06183C",
"u  c #012526",
"i  c #00222A",
"p  c #002333",
"a  c #01223B",
"s  c #002B39",
"d  c #073131",
"f  c #000044",
"g  c #0E0441",
"h  c #000E42",
"j  c #00024C",
"k  c #000B4B",
"l  c #001442",
"z  c #00154C",
"x  c #041A48",
"c  c #000153",
"v  c #000D51",
"b  c #00005A",
"n  c #090158",
"m  c #000D59",
"M  c #11005B",
"N  c #001352",
"B  c #061A53",
"V  c #00145B",
"C  c #002344",
"Z  c #002B45",
"A  c #00224B",
"S  c #002C4C",
"D  c #002353",
"F  c #002954",
"G  c #00245B",
"H  c #013258",
"J  c #010063",
"K  c #0A0066",
"L  c #000D63",
"P  c #00006C",
"I  c #021766",
"U  c #000073",
"Y  c #060778",
"T  c #02007C",
"R  c #100C73",
"E  c #00167C",
"W  c #00256D",
"Q  c #002968",
"!  c #003864",
"~  c #042974",
"^  c #013673",
"/  c #023E75",
"(  c #00357B",
")  c #00466C",
"_  c #00437D",
"`  c #015678",
"'  c #000083",
"]  c #01008C",
"[  c #001B86",
"{  c #000091",
"}  c #000B97",
"|  c #00009C",
" . c #021992",
".. c #0B2E87",
"X. c #01368D",
"o. c #002A92",
"O. c #00279B",
"+. c #003A92",
"@. c #10369C",
"#. c #0700A3",
"$. c #0200AB",
"%. c #0019A4",
"&. c #0200B6",
"*. c #002CA9",
"=. c #0032A2",
"-. c #0037A7",
";. c #003DAD",
":. c #0026B4",
">. c #083AB5",
",. c #014482",
"<. c #01498F",
"1. c #005689",
"2. c #004799",
"3. c #035596",
"4. c #00748F",
"5. c #006E9C",
"6. c #00749A",
"7. c #0546A3",
"8. c #0056AF",
"9. c #004CB7",
"0. c #025CB4",
"q. c #0355B9",
"w. c #006DA9",
"e. c #0075A5",
"r. c #0065B7",
"t. c #007BB6",
"y. c #0278BC",
"u. c #1873B3",
"i. c #207BBD",
"p. c #0000C5",
"a. c #0300D5",
"s. c #0025C6",
"d. c #0000E8",
"f. c #0057C3",
"g. c #0152D9",
"h. c #0067C9",
"j. c #0473C4",
"k. c #0075CD",
"l. c #007BCE",
"z. c #0072D2",
"x. c #007BD4",
"c. c #0073DB",
"v. c #007BDC",
"b. c #0047E5",
"n. c #0053E5",
"m. c #0772EB",
"M. c #027AFB",
"N. c #0189AC",
"B. c #0191AC",
"V. c #018CBD",
"C. c #00A1BE",
"Z. c #0082C4",
"A. c #0489CA",
"S. c #008BCC",
"D. c #1787C4",
"F. c #0198C5",
"G. c #0093CB",
"H. c #0089D7",
"J. c #0084DB",
"K. c #0194D4",
"L. c #049CD5",
"P. c #0094DF",
"I. c #009DDC",
"U. c #1294D1",
"Y. c #2E95CB",
"T. c #2999D7",
"R. c #00A4CD",
"E. c #01A9D2",
"W. c #00A2DC",
"Q. c #01AEDC",
"!. c #1BA4D2",
"~. c #00BAD7",
"^. c #00B1DB",
"/. c #00BDDE",
"(. c #32ADDC",
"). c #0189E2",
"_. c #0088E8",
"`. c #1385E9",
"'. c #0296E6",
"]. c #009AEE",
"[. c #008CF5",
"{. c #349CFF",
"}. c #00A7E1",
"|. c #00A4EB",
" X c #00ABED",
".X c #00B8E3",
"XX c #00B4EC",
"oX c #00BFEB",
"OX c #00A3F7",
"+X c #02AAF4",
"@X c #03A6FA",
"#X c #01ABFA",
"$X c #01B4F5",
"%X c #00BAF4",
"&X c #0CBCF6",
"*X c #01B4FC",
"=X c #00BCFE",
"-X c #39B5E3",
";X c #29A6FA",
":X c #43ACDF",
">X c #00C1EE",
",X c #14D6ED",
"<X c #00C4F4",
"1X c #01CDF2",
"2X c #00C4FD",
"3X c #00CBFE",
"4X c #12CBFF",
"5X c #01D7F2",
"6X c #00D2FD",
"7X c #00D9FF",
"8X c #36D0EC",
"9X c #2BDEFF",
"0X c #47C5E6",
"qX c #49C4E8",
"wX c #57CFED",
"eX c #4DD4EE",
"rX c #77D7ED",
"tX c #45EBF7",
"yX c #58EAF6",
"uX c #64E2F4",
"iX c #6BF8FD",
"pX c #76F8FC",
"aX c #94EEF6",
"sX c #80FFFF",
"dX c #8CFDFF",
"fX c #91FFFF",
"gX c #9AFFFD",
/* pixels */
"+ X + + + # # + # # + # #     # # > # , > # > # # # # # # # # # # + + + + + X + ",
"+ + + + + @ 3 + # + % %   ! 1.> % # > . @ > > % # > # > , # # # # + # + + + X + ",
"X + + + x x f m + # # 2   5.R.f & < @ c f @ < > > > , 6   > > # # # # # + + + + ",
"+ + # . K | j.~ < , > # % f b & > 5   K.w.  4 8 > 4 + ' Y t # # # # + # # # + + ",
"+ + * 0 -.wXuXO.g , 1 8 1 > * j l   Q 2XW.  5 1 1 + ..qXj.7 O + # % , + = * # + ",
"+ # % 0 +.eX:X' * > 1 1 L V z r.Q   V.[. X1.  e 4   3.(.+.  E V @ X # B j j & # ",
"# # # o K @.P B 8 h > c ~ ] 3.F.T X.3X$.J.oX< : e 1 9 J 9 * N z < ^ / J T.Y.f O ",
"+ # # # q $ * < , q I W U #.^.q.] 5X_.  U =X~.<   p 5 a < J n ~ T G.` f D.u.f & ",
"# # % >   * > 4 a p I Z.D.s.yX(.1X+XU { U %.3X^._     # 3.+.7.$.K.F.J H 8 < 2 + ",
"+ # # X V h %       n $.8XaXfX9Xm.Y U *X).7 ' ).3XQ.5.< b Y.-XT.0Xy.j.j i 2 > # ",
"# # >   E V   _ 4.4.V.oX,XdXuX@Xa.s.*X#X*X].T + =.J.3X1XE.t.eXfXrX:Xo.I 1 > # # ",
"# # # ,   u   /.7X<X XM.{.{.d.m._.=X_.' | #X*X0.9   ] h.'.2XpXfXiXK.0.T l < # # ",
"# # # > 1 p   /.l.f P &.[.a.`.*X=Xf.b F 1 T J.2X$Xh.J U p.>XeX4X,Xj.*.L q 8 # # ",
"# # > > 1 p   .XA.< o.c.@X*X2Xx.T f C j N s f | '.3X#XP.g.'.b.=XZ.j.w.c e # > # ",
"% # > > 1 p   /.S.  +X6X'.h.T j a z j k k c A , f ] x. X7Xh.$.=XB.U 5.b , > # # ",
"# > > , > p   /.S.  XXP.  j G x m N k k k k k v A e + c 2XZ.] %XB.< 7 l 8 # > # ",
"# # > > 1 d   /.H.  XXI.# F j k k k k v k k k h j c S b <XZ.j %XB.  s > > > > # ",
"# # 1 # X d   F.$X+ XXI.X D k k k k k k k k k k k j C b 2Xt.U 3X1.  r , , > # # ",
"> > + D K U   B.oX9  XW.  D k k k k k k k k k k k k C b 2Xt.U 6X!   1 1 > , > > ",
"# , X W U.(...N.$X&.6XL.+ D k k v k k k k k k k k j C b <Xt.T 3X)   4 + > > > # ",
"> > i 7 !.sXV.<.&XM.3XH.f D k k k k k k k k k k k j C b =Xr.r.>X< 3 < k , > > # ",
"# > % 9 r.-Xi.:.<X3X).+Xb C j k k k k k k k k k k k < o.=X] y.E.  i 9 [ 8 # > > ",
"# # > 1 j K 8.z.tX;Xn.$XP A f k k k k k k k k k k N # 7.=XJ P.V.  r > 1 > > > # ",
"# # > 1 x R r.8XgX;Xa.@X=.7 v k k k k k k k k k k B > z.].c |.5.  r > > 1 > # # ",
"# > + . 7 @.I.uXdX4Xb.@Xl.> D k k k k k h k k k k A c #XS.U *X)   e , > > > > # ",
"%   k [ . } k.,XQ.2Xg.J.*XP C k k k k k k k k k z < =.2X} z.XX+ 5 e > 8 1 1 # # ",
"# + q v p T F.W.>.W.J.| 3X;.# N k k k k k k k j A < H.%X' $X6.  G K <.V X 1 # # ",
"# # + X > Q Z. .' 1.2X] |.+XP C c k k v k k h m 4 | 2Xq.q.<X9 A Y 0.A.c t # # # ",
"# # # <   N m 2 x 7 L.z.' *Xz.> S j k v v k c s b OX].U ].e.  ~ q.0Xu.U r 8 > + ",
"+ # # # 1   + w ^ f / =X| ;.*X>.< A j v N c Z j v.#XT k.XX< B =.eXfXU.J 5 , # # ",
"+ % # % + ^ X.-.K.^   E.#Xc x.2X:.< F j c Z j c.2X=.{ 2X5.  y @.qXqXH...> 1 # # ",
"# + # ,   W T.pX(.' d f XXv.9 v.2X:.+ Z s f c.2X;.P #XF.  u j J l.7.-.Y l + # # ",
"+ # # + d b !.iX(.2.<   ( 2Xc.9 v.2Xh.b ' _.2X-.J OX.Xf ; 9 R.5.T x f 1 > > + @ ",
"+ + + 2   X.S.9.2.3.f -   ( 2X'.' q.=X2X2X#X| #.*X}.9 o 4 < 1.! + t 3 > # # # # ",
"+ + + q ^ G c M f   . E D   ~ oX2X:.| r.9.{ z.3XR.f O e > ,   + 1 # 7 + # @ + # ",
"+ %   W ^.^   3 , 8 + I f 5   < V.3X X}.W.%X<X1.  = 1 > > > , 2   W E.^   # # + ",
"+ + + 1 W q + > % # >   @ > 4 =   L N.C.R.5.j _ H # , > > # % > # N e.D + + + + ",
"X + + +   + # # # # # > > # # < 5           N E.,.  2 # # > # # + X   + # + + X ",
"+ + + + % % # # # # # # > # # # > 2 r r i 5 > c 7 % # # # # # + # # * # + + + + ",
"X + + + + + + # @ # # # # # # # > # # > # # # o + # # # # + # # + + + + + + X + "
};
