/* XPM */
static char *_101_3f5d56e70b158acb30d24e38a10c363130d78debb42b4f09cc96ded3b177a9d5[] = {
/* columns rows colors chars-per-pixel */
"40 40 33 1 ",
"  c #00050D",
". c #020A0E",
"X c #000611",
"o c #030B14",
"O c #080F17",
"+ c #01071E",
"@ c #050D1B",
"# c #080F1B",
"$ c #071015",
"% c #091216",
"& c #06101E",
"* c #09111D",
"= c #10171F",
"- c #050C21",
"; c #080E23",
": c #061223",
"> c #0A1323",
", c #0F1826",
"< c #061329",
"1 c #0C152A",
"2 c #0C192B",
"3 c #101625",
"4 c #111925",
"5 c #101729",
"6 c #121A2C",
"7 c #181F2F",
"8 c #0D1931",
"9 c #111D35",
"0 c #1B232E",
"q c #152032",
"w c #192231",
"e c #142038",
"r c #273037",
/* pixels */
". . ....===XXOo o .oo$o. %$Xr$ %$..$%%$.",
"   .oo.  OOX O#oXXooXXoo%%oX=o $....$$$.",
".  oO.X  OOXXoOoXoooXXoO*@o%Xo%%........",
".....oXXXO=O#OOXXOoooooOX%X%.>%o.$......",
"OO. .XoX O###O##oOoX>OXo *Xoo* %o$$o..$.",
"%O...X.O o###o#oo*oX>*o%*6oX>*X*$$o$$$.o",
"O.o.OXOX####Ooooo>oX>*O>03*#>##%$oo$$%$o",
"  XoOOOOo #####;o,OX*%O70 %**X>X%oo$&%oX",
"X.OO#OoXoo#;###=@@O>33@oo@##>>#Oooo@&o@o",
"OOOO#o#Oo#O#O#;3>*####33##*#*##@o@@%%$%o",
"OOXO####O#o#;=34#>>;@-67>>>>>#-#OOO*&%@o",
"XooXooo#####3444o;3,#;>3>33>>>;@@@O*O@@@",
"XXoO#O#o#o#;=333+;>>;>>@>>>>;;*;@*@@@Oo@",
"XXo##OoOo####;#;#>>;;;3;;;;;>;>*#%%@@@O@",
"Xoo####O#;#;##;=;5>;;353>##;>;>;***@%@O@",
"XXXoXo#+;33=##;3;56>36953>>>;*;>>*>&&&&&",
"ooX@>@O>*,&&,:&*>>*>>,>&w,@>,>@>,,*&**%@",
"o@@@>@o>&:&&:<:2>*>>>,>*66,>>>>*,****:&&",
"o>*oO@@:&&&&:,:2>>>>>>>,>64:@,,@*>&**&&o",
"X>&+oO@@&:&&:&&:>>,4>&>4&,,*@&:@&&&**&%&",
"X;OXO@@&&&&&::&:>>,1>;>1>->>>@-&@:@>;-@+",
"+O%+**->o:&&2:&:,>>2,>:1>>:,1::>*@:@*@@@",
"@+o@>>@%:>:&::&:,>:66>->>>>:>,,@:-&--@@@",
"@oX@,:o@2,&@&:&2,->67,>>-,>+@61+>:@@->;@",
"o@@@@+:>*&&&::2:15155555>:;>15>----;;;-+",
"o@O@oo&>*&:&:::&1>>>1;1;>>>>11;----;;-@+",
"oo+@ooO:>>&:::&&;>;;>1;;>;;>>>-@-------+",
"+o@o+@@@&&::2:22511>;515<;-;>-----------",
"Xo+o@o@@*&::<>>1511115111;;1>;--------;;",
"+o@o@@@@&:&&::::5111151151;81<;<--------",
"oXo@@@@@*&&&:>>>1;1;111<1<155--;------+-",
"oo@@@@@@&*::,26511<1111;1;;81-+-------++",
",&Ooo@@@&::>>22q:222228<8<<<-<:-----;+++",
"o@oooo@@&&>::226&22<<<<<982<<:-@--;<;;#;",
"Xo@oooo&:>:::>22::2:<<8<<<<::::@++-;;;++",
"Xoooooo@&&&::::2:22<<282<<<--:--++--+;+;",
"OoXXo@o&@:&::::::<<<<88<99<<--@-;;----;;",
"&oXXo@&@:@:@:>::::<:<<<<98<<------+++-;;",
"oXoXoo-&&@:::>::<::<<2<<<<--<--@-+--+;+;",
"XXoooo&&:@-::<:-2<<:<<8<<<<<<<-++--;;;;+"
};
