/* XPM */
static char *_879_823924fca6d3a8229f39dbf9343607c5c928a7d21cc776254d160e7f45518337[] = {
/* columns rows colors chars-per-pixel */
"40 40 177 2 ",
"   c black",
".  c #030000",
"X  c #0A0000",
"o  c #0C0000",
"O  c #0D0000",
"+  c #000C01",
"@  c #140000",
"#  c #1B0000",
"$  c #1D0007",
"%  c #1C000E",
"&  c #0C1011",
"*  c #081B16",
"=  c #051E18",
"-  c #151515",
";  c #1B1F1D",
":  c #230000",
">  c #230004",
",  c #260008",
"<  c #310007",
"1  c #380000",
"2  c #3D0000",
"3  c #33001A",
"4  c #25121F",
"5  c #21171F",
"6  c #221B1F",
"7  c #251E1F",
"8  c #03261D",
"9  c #340524",
"0  c #3E0024",
"q  c #350F29",
"w  c #2A1523",
"e  c #321727",
"r  c #34152A",
"t  c #351E2D",
"y  c #371F2F",
"u  c #102622",
"i  c #152420",
"p  c #172825",
"a  c #1A2D29",
"s  c #1A322E",
"d  c #222627",
"f  c #232828",
"g  c #262A2B",
"h  c #272B2C",
"j  c #382233",
"k  c #382433",
"l  c #3B2734",
"z  c #3E2434",
"x  c #3E2535",
"c  c #322A32",
"v  c #2E3836",
"b  c #343439",
"n  c #343638",
"m  c #37373A",
"M  c #440027",
"N  c #4A0020",
"B  c #4E002A",
"V  c #480632",
"C  c #4F1D3E",
"Z  c #402436",
"A  c #41343A",
"S  c #46303E",
"D  c #48333B",
"F  c #42393C",
"G  c #344038",
"H  c #581845",
"J  c #463441",
"K  c #4F3046",
"L  c #4B3746",
"P  c #4E3446",
"I  c #503246",
"U  c #543348",
"Y  c #513448",
"T  c #54364B",
"R  c #513848",
"E  c #503A4C",
"W  c #55384E",
"Q  c #523E4C",
"!  c #553D4D",
"~  c #5D3752",
"^  c #5E3653",
"/  c #5A3B52",
"(  c #5F3C56",
")  c #72305D",
"_  c #74345C",
"`  c #234042",
"'  c #3E514C",
"]  c #3E524E",
"[  c #235D54",
"{  c #2C6259",
"}  c #33655C",
"|  c #3C766D",
" . c #297E70",
".. c #434343",
"X. c #424744",
"o. c #474848",
"O. c #474F4A",
"+. c #5A4453",
"@. c #5D4557",
"#. c #525457",
"$. c #5F5B5D",
"%. c #674C5F",
"&. c #61505A",
"*. c #605B5D",
"=. c #41625F",
"-. c #704764",
";. c #784365",
":. c #704E66",
">. c #615A67",
",. c #79506E",
"<. c #7A5471",
"1. c #426260",
"2. c #4D6465",
"3. c #556266",
"4. c #5C6162",
"5. c #516868",
"6. c #487671",
"7. c #4A7B75",
"8. c DimGray",
"9. c #696A69",
"0. c #6D696B",
"q. c #6D6B6B",
"w. c #706A6B",
"e. c #716C6D",
"r. c #726D6D",
"t. c #636F76",
"y. c #6B6D76",
"u. c #706D77",
"i. c #7E677A",
"p. c #717977",
"a. c #7E7E7E",
"s. c #815570",
"d. c #875B7B",
"f. c #826379",
"g. c #3F847A",
"h. c #318B7E",
"j. c #42867B",
"k. c #6F817D",
"l. c #6D7D81",
"z. c #936082",
"x. c #936283",
"c. c #976687",
"v. c #907087",
"b. c #97778F",
"n. c #98748D",
"m. c #9B7691",
"M. c #9F7B95",
"N. c #3F988B",
"B. c #5E9C93",
"V. c #708480",
"C. c #758985",
"Z. c #788489",
"A. c #788C91",
"S. c #6C9F99",
"D. c #53A296",
"F. c #5CA197",
"G. c #50B0A2",
"H. c #76B6AE",
"J. c #6EC2B6",
"K. c #6CC5B7",
"L. c #74C7BC",
"P. c #75CABD",
"I. c #7CC8BD",
"U. c #A8829D",
"Y. c #AB839F",
"T. c #AF87A3",
"R. c #B68FAA",
"E. c #B591AC",
"W. c #BC93B1",
"Q. c #8CAFAF",
"!. c #C197B5",
"~. c #C497B7",
"^. c #CC99BC",
"/. c #C99EBD",
"(. c #C4A0BC",
"). c #99CAC8",
"_. c None",
/* pixels */
"_._._._._._._._._._._._._._._._._._._._._._._._._._._._._._._._._._._._._._._._.",
"_._._._._._._._._._._._._._._._._._._._._._._._._._._._._._._._._._._._._._._._.",
"_._._._._._._._._._._._._._._._._._._._._._._._._._._._._._._._._._._._._._._._.",
"_._._._._._._._._._._._._._._._._._._._._._._._._._._._._._._._._._._._._._._._.",
"_._._._._._._._._._._._._._._._._._._._._._._._._._._._._._._._._._._._._._._._.",
"_._._._._._._._._._._._._._._._._._._._._._._._._._._._._._._._._._._._._._._._.",
"_._._._._._._._._._._._._._._._._._._._._._._._._._._._._._._._._._._._._._._._.",
"_._._._._._._._._._._._._._._._._._._._._._._._._._._._._._._._._._._._._._._._.",
"_._._._._._._._._._._._._._._._._.& i _._._.d f _._._._._._._._._._._._._._._._.",
"_._._._._._._._._._._._._._._._._.+ * ~ Y.f.  g _._._._._._._._._._._._._._._._.",
"_._._._._._._._._._._._._._._._._.5 ^ d.m./.v.  _._._._._._._._._._._._._._._._.",
"_._._._._._._._._._._._._._._._.e Z -.:.%.M.U.x _._._._._._._._._._._._._._._._.",
"_._._._._._._._._._._._._._._._.r % 3 ; O.*.. / A _._._._._._._._._._._._._._._.",
"_._._._._._._._._._._._._._._.o.$.m [ - 0.p.` z 9._._._._._._._._._._._._._._._.",
"_._._._._._._._._._._._._._._.= D 5.J.$ w.V.G.F a._._._._._._._._._._._._._._._.",
"_._._._._._._._._._._._._._._._.0 2.I.# e.k.L.Q S _._._._._._._._._._._._._._._.",
"_._._._._._._._._._._._._._._._.V 1.P.@ r.C.K.! L _._._._._._._._._._._._._._._.",
"_._._._._._._._._._._._._._._.N < i.Q.4 &.4.t.U B _._._._._._._._._._._._._._._.",
"_._._._._._._._._._._._._._._.D.3.z.n.> M W c.b.F._._._._._._._._._._._._._._._.",
"_._._._._._._._._._._._._._._.B.y.) >.j.g.l.T.E.S._._._._._._._._._._._._._._._.",
"_._._._._._._._._._._._._._._.X H <.;.=.7.s.R.!.: _._._._._._._._._._._._._._._.",
"_._._._._._._._._._._._._._._.c ( x.u., 2 Z.(.^.b _._._._._._._._._._._._._._._.",
"_._._._._._._._._._._._._._._._._ A.h.9 C | ).~._._._._._._._._._._._._._._._._.",
"_._._._._._._._._._._._._._._._.6.N.6 q E 1  .H._._._._._._._._._._._._._._._._.",
"_._._._._._._._._._._._._._._._.{ s O k Y n 7 } _._._._._._._._._._._._._._._._.",
"_._._._._._._._._._._._._._._._.o p a t P h ] .._._._._._._._._._._._._._._._._.",
"_._._._._._._._._._._._._._._._._.u 8 y K v ' _._._._._._._._._._._._._._._._._.",
"_._._._._._._._._._._._._._._._._._.j w J #._._._._._._._._._._._._._._._._._._.",
"_._._._._._._._._._._._._._._._._._.,.T +.W._._._._._._._._._._._._._._._._._._.",
"_._._._._._._._._._._._._._._._._._.l I R @._._._._._._._._._._._._._._._._._._.",
"_._._._._._._._._._._._._._._._._._.X._._.G _._._._._._._._._._._._._._._._._._.",
"_._._._._._._._._._._._._._._._._._.8._._.q._._._._._._._._._._._._._._._._._._.",
"_._._._._._._._._._._._._._._._._._._._._._._._._._._._._._._._._._._._._._._._.",
"_._._._._._._._._._._._._._._._._._._._._._._._._._._._._._._._._._._._._._._._.",
"_._._._._._._._._._._._._._._._._._._._._._._._._._._._._._._._._._._._._._._._.",
"_._._._._._._._._._._._._._._._._._._._._._._._._._._._._._._._._._._._._._._._.",
"_._._._._._._._._._._._._._._._._._._._._._._._._._._._._._._._._._._._._._._._.",
"_._._._._._._._._._._._._._._._._._._._._._._._._._._._._._._._._._._._._._._._.",
"_._._._._._._._._._._._._._._._._._._._._._._._._._._._._._._._._._._._._._._._.",
"_._._._._._._._._._._._._._._._._._._._._._._._._._._._._._._._._._._._._._._._."
};
