/* XPM */
static char *aa6307dff3dd4c9bebf15832e3c7e058uzmTNQAcxCxLzDid[] = {
/* columns rows colors chars-per-pixel */
"40 40 177 2 ",
"   c None",
".  c black",
"X  c #030000",
"o  c #0A0000",
"O  c #0C0000",
"+  c #0D0000",
"@  c #000C01",
"#  c #140000",
"$  c #1B0000",
"%  c #1D0007",
"&  c #1C000E",
"*  c #0C1011",
"=  c #081B16",
"-  c #051E18",
";  c #151515",
":  c #1B1F1D",
">  c #230000",
",  c #230004",
"<  c #260008",
"1  c #310007",
"2  c #380000",
"3  c #3D0000",
"4  c #33001A",
"5  c #25121F",
"6  c #21171F",
"7  c #221B1F",
"8  c #251E1F",
"9  c #03261D",
"0  c #340524",
"q  c #3E0024",
"w  c #350F29",
"e  c #2A1523",
"r  c #321727",
"t  c #34152A",
"y  c #351E2D",
"u  c #371F2F",
"i  c #102622",
"p  c #152420",
"a  c #172825",
"s  c #1A2D29",
"d  c #1A322E",
"f  c #222627",
"g  c #232828",
"h  c #262A2B",
"j  c #272B2C",
"k  c #382233",
"l  c #382433",
"z  c #3B2734",
"x  c #3E2434",
"c  c #3E2535",
"v  c #322A32",
"b  c #2E3836",
"n  c #343439",
"m  c #343638",
"M  c #37373A",
"N  c #440027",
"B  c #4A0020",
"V  c #4E002A",
"C  c #480632",
"Z  c #4F1D3E",
"A  c #402436",
"S  c #41343A",
"D  c #46303E",
"F  c #48333B",
"G  c #42393C",
"H  c #344038",
"J  c #581845",
"K  c #463441",
"L  c #4F3046",
"P  c #4B3746",
"I  c #4E3446",
"U  c #503246",
"Y  c #543348",
"T  c #513448",
"R  c #54364B",
"E  c #513848",
"W  c #503A4C",
"Q  c #55384E",
"!  c #523E4C",
"~  c #553D4D",
"^  c #5D3752",
"/  c #5E3653",
"(  c #5A3B52",
")  c #5F3C56",
"_  c #72305D",
"`  c #74345C",
"'  c #234042",
"]  c #3E514C",
"[  c #3E524E",
"{  c #235D54",
"}  c #2C6259",
"|  c #33655C",
" . c #3C766D",
".. c #297E70",
"X. c #434343",
"o. c #424744",
"O. c #474848",
"+. c #474F4A",
"@. c #5A4453",
"#. c #5D4557",
"$. c #525457",
"%. c #5F5B5D",
"&. c #674C5F",
"*. c #61505A",
"=. c #605B5D",
"-. c #41625F",
";. c #704764",
":. c #784365",
">. c #704E66",
",. c #615A67",
"<. c #79506E",
"1. c #7A5471",
"2. c #426260",
"3. c #4D6465",
"4. c #556266",
"5. c #5C6162",
"6. c #516868",
"7. c #487671",
"8. c #4A7B75",
"9. c DimGray",
"0. c #696A69",
"q. c #6D696B",
"w. c #6D6B6B",
"e. c #706A6B",
"r. c #716C6D",
"t. c #726D6D",
"y. c #636F76",
"u. c #6B6D76",
"i. c #706D77",
"p. c #7E677A",
"a. c #717977",
"s. c #7E7E7E",
"d. c #815570",
"f. c #875B7B",
"g. c #826379",
"h. c #3F847A",
"j. c #318B7E",
"k. c #42867B",
"l. c #6F817D",
"z. c #6D7D81",
"x. c #936082",
"c. c #936283",
"v. c #976687",
"b. c #907087",
"n. c #97778F",
"m. c #98748D",
"M. c #9B7691",
"N. c #9F7B95",
"B. c #3F988B",
"V. c #5E9C93",
"C. c #708480",
"Z. c #758985",
"A. c #788489",
"S. c #788C91",
"D. c #6C9F99",
"F. c #53A296",
"G. c #5CA197",
"H. c #50B0A2",
"J. c #76B6AE",
"K. c #6EC2B6",
"L. c #6CC5B7",
"P. c #74C7BC",
"I. c #75CABD",
"U. c #7CC8BD",
"Y. c #A8829D",
"T. c #AB839F",
"R. c #AF87A3",
"E. c #B68FAA",
"W. c #B591AC",
"Q. c #BC93B1",
"!. c #8CAFAF",
"~. c #C197B5",
"^. c #C497B7",
"/. c #CC99BC",
"(. c #C99EBD",
"). c #C4A0BC",
"_. c #99CAC8",
/* pixels */
"                                                                                ",
"                                                                                ",
"                                                                                ",
"                                                                                ",
"                                                                                ",
"                                                                                ",
"                                                                                ",
"                                                                                ",
"                                                                                ",
"                                                                                ",
"                                                                                ",
"                                                                                ",
"                                                                                ",
"                                                                                ",
"                                                                                ",
"                                    v o V.F.B     - O.                          ",
"                            + } 7.` ) J u.4.1 C q F =.t r                       ",
"                          i a d B.S.c.1._ c.p.-.3.6.M & A 6 @ *                 ",
"                0.o.z <.k 9 s + 7 j.i.:.,.m.!.I.U.K.{ 4 ;.^ = p                 ",
"                    U R e u y l w 0 < -.k., 5 # $ % ; : >.f.^                   ",
"                    E @.K L I U W Z 3 8.h.N *.t.t.e.q.+.&.M.R.                  ",
"                q.H #.Q.$.b j m 2  .A.d.z.Q 5.Z.l.C.a.=.N.(.g.                  ",
"                          [ [ 8 .._.).E.R.v.y.L.P.H.' . Y.b.. f                 ",
"                            X.| J.^./.~.W.n.Y ~ ! G c ( c . h g                 ",
"                                    n > D.G.V P D s.0.S                         ",
"                                                                                ",
"                                                                                ",
"                                                                                ",
"                                                                                ",
"                                                                                ",
"                                                                                ",
"                                                                                ",
"                                                                                ",
"                                                                                ",
"                                                                                ",
"                                                                                ",
"                                                                                ",
"                                                                                ",
"                                                                                ",
"                                                                                "
};
