/* XPM */
static char *_822_a50b85765fc2795db379bf7069d1e1468c7269ab7d4446f62e89d2a06986fc40[] = {
/* columns rows colors chars-per-pixel */
"40 40 256 2 ",
"   c #040104",
".  c #04000B",
"X  c #0B010D",
"o  c #0C0908",
"O  c #0B0012",
"+  c #0A0219",
"@  c #170618",
"#  c #181417",
"$  c #12050E",
"%  c #22131E",
"&  c #1D0D23",
"*  c #1E1425",
"=  c #220E24",
"-  c #231424",
";  c #2B162A",
":  c #2C1A2C",
">  c #271727",
",  c #311A2E",
"<  c #331E32",
"1  c #2C1B31",
"2  c #2C242B",
"3  c #30252D",
"4  c #2B2437",
"5  c #372537",
"6  c #3B363A",
"7  c #212220",
"8  c #412A3E",
"9  c #2D0D4F",
"0  c #392E44",
"q  c #330878",
"w  c #0C097E",
"e  c #4A3648",
"r  c #493455",
"t  c #492A6C",
"y  c #5A4357",
"u  c #4F4D55",
"i  c #5D625F",
"p  c #6D596E",
"a  c #6F6A76",
"s  c #585664",
"d  c #10129B",
"f  c #320C8F",
"g  c #1A2392",
"h  c #322E95",
"j  c #2F15AD",
"k  c #1926B7",
"l  c #242DB7",
"z  c #3928B6",
"x  c #2935B7",
"c  c #3230A9",
"v  c #191DA3",
"b  c #461095",
"n  c #562E8F",
"m  c #673C98",
"M  c #541EA5",
"N  c #4834A9",
"B  c #5C3CB5",
"V  c #4B33AF",
"C  c #6634B2",
"Z  c #3649B8",
"A  c #364392",
"S  c #4F4A8F",
"D  c #6A4B92",
"F  c #71728E",
"G  c #5649A8",
"H  c #5953AB",
"J  c #584BB8",
"K  c #4758B6",
"L  c #5A55B7",
"P  c #4A49B4",
"I  c #7649A8",
"U  c #635BA8",
"Y  c #6846B8",
"T  c #764AB5",
"R  c #6759B9",
"E  c #785ABB",
"W  c #6C48A9",
"Q  c #5566B6",
"!  c #6964AC",
"~  c #6669B9",
"^  c #6575B8",
"/  c #7B78B9",
"(  c #7768B1",
")  c #1827C8",
"_  c #1728C8",
"`  c #2938C5",
"'  c #3232CD",
"]  c #373FEC",
"[  c #533AD0",
"{  c #563AE4",
"}  c #4B39E3",
"|  c #3446C6",
" . c #3950CF",
".. c #5845C6",
"X. c #4757C8",
"o. c #4247DC",
"O. c #5948D8",
"+. c #4454D4",
"@. c #5758DA",
"#. c #5050C9",
"$. c #694BC8",
"%. c #7846C9",
"&. c #6B55CA",
"*. c #6859DB",
"=. c #7659D7",
"-. c #7250D0",
";. c #5663C9",
":. c #5667D8",
">. c #506ACC",
",. c #6767C8",
"<. c #7869C5",
"1. c #7B76C6",
"2. c #7767D8",
"3. c #6477D9",
"4. c #6A73CE",
"5. c #545CE8",
"6. c #4F55EE",
"7. c #755AE8",
"8. c #6548F5",
"9. c #7757FC",
"0. c #6754ED",
"q. c #5968E8",
"w. c #5663F6",
"e. c #636EE8",
"r. c #7B67E5",
"t. c #6978E5",
"y. c #797AE5",
"u. c #6D69FD",
"i. c #746CFB",
"p. c #7679FE",
"a. c #6774FD",
"s. c #8A798D",
"d. c #8756BD",
"f. c #8251B3",
"g. c #8870B3",
"h. c #885BD7",
"j. c #8D5DC9",
"k. c #8668C7",
"l. c #8977C8",
"z. c #8666D5",
"x. c #9769D7",
"c. c #8976D7",
"v. c #9879DA",
"b. c #9573C8",
"n. c #A379D9",
"m. c #A375CF",
"M. c #866AE5",
"N. c #9769E8",
"B. c #9877E6",
"V. c #8469FB",
"C. c #867BFB",
"Z. c #9975F6",
"A. c #8F76ED",
"S. c #A87BE8",
"D. c #A979FA",
"F. c #A873F8",
"G. c #805FFF",
"H. c #7285BF",
"J. c #7F828B",
"K. c #778BD7",
"L. c #7A8CCE",
"P. c #7A86FE",
"I. c #7586E6",
"U. c #858789",
"Y. c #979994",
"T. c #8E8BB2",
"R. c #A796B1",
"E. c #ACA6AD",
"W. c #A8A8B7",
"Q. c #B1ADB3",
"!. c #9CA5A4",
"~. c #C5AEBE",
"^. c #8A85C9",
"/. c #9488CA",
"(. c #989AC6",
"). c #9488D7",
"_. c #8898D8",
"`. c #9897D7",
"'. c #8A8DD2",
"]. c #A987DA",
"[. c #AB96D6",
"{. c #95A8DB",
"}. c #B6B7C4",
"|. c #A7B4DB",
" X c #AEAED6",
".X c #8898EA",
"XX c #8784FD",
"oX c #8894FD",
"OX c #968DED",
"+X c #A487E9",
"@X c #A996E9",
"#X c #AC87F9",
"$X c #B788FB",
"%X c #AD93FD",
"&X c #BB96FA",
"*X c #B58FE7",
"=X c #99A9F7",
"-X c #91A9EA",
";X c #ABA8E7",
":X c #A7B6EA",
">X c #B7BDE8",
",X c #BAA8F6",
"<X c #A9B8F8",
"1X c #B7B8F6",
"2X c #B4A9EA",
"3X c #C8B9D0",
"4X c #C49CFE",
"5X c #C696FF",
"6X c #C7A5FA",
"7X c #D3A9FE",
"8X c #C8B8FB",
"9X c #D8B5FE",
"0X c #CCB4E7",
"qX c #E3BEFF",
"wX c #C199DF",
"eX c #B9C5D4",
"rX c #B8C5E9",
"tX c #B8C8FB",
"yX c #B2C9F4",
"uX c #C8C3DB",
"iX c #D6DADE",
"pX c #CCCDD3",
"aX c #C6CAE8",
"sX c #D7CBE3",
"dX c #D6DAE6",
"fX c #C7C9F7",
"gX c #D7CAFE",
"hX c #CBDCFE",
"jX c #C9D9F8",
"kX c #D8D9FA",
"lX c #CBD6E8",
"zX c #E5D9EB",
"xX c #E6CAFF",
"cX c #E8D6FB",
"vX c #F5D9FD",
"bX c #D9E3EB",
"nX c #D4E4FE",
"mX c #DCE8F9",
"MX c #DEF1FA",
"NX c #CFE2FF",
"BX c #E5E6EB",
"VX c #E2E4FE",
"CX c #E4ECFF",
"ZX c #EBECFF",
"AX c #E5E6F5",
"SX c #F3ECFE",
"DX c #F8E7FC",
"FX c #E2F4FD",
"GX c #EBF5FF",
"HX c #ECFBFE",
"JX c #E9F3F6",
"KX c #F4F4FD",
"LX c #F4FCFE",
"PX c #FDFCFF",
"IX c #F6F8F9",
"UX c #E5D5DF",
/* pixels */
"O.f 7.$X%XOX&.,.y.y.P.P.q.| ` w.I.Z K K A S ^ ! ! / ~ G R A.XXM.B q b N.$XD.b f ",
"[ f O.A.A.r...L 2.oXoX:.| |  . .+.X.K.P.'.'.=X`./ '.`.1.G J 2.A.-.B f T h.F.%.b ",
"f f $.=.....J ;.y.XX3.c v Z  .Z Z H.-XhX<X<XtX1X`.`.`.c.U N #.A.B.S.b T C m x.C ",
"f V =.$.N V &.*.XX;.g g c K >.Q K.K.yXNXtXfXkXkXgX`./ 1.1.<.L L ].,Xd.*XC q j.x.",
"f <.z.&.N j =.r.r.P g h K H.L.-XyXyXtXNXjXNXmXVXKXfX(.l.'.1.H h b.,X9XqXm.m C wX",
"D v.T R $.N 7.*.z x P K ^ L.:XjXNXNXNXjXnXCXZXZXSXGXcX2X^.1.! n /.xXvXqX4XwXm m.",
"b.].n E A.$.7.O.f ..4.1._.rXMXMXMXMXMXMXGXIXLXIXVXSXVXfX X(./ U 2XvXvX0XvXqXn I ",
"*X].q %.%Xh.A.[ V J 1.{.yXMXJXJXMXMXMXiXiXbXdXBXPXZXdXfXrX XH.S ;XxX6X7XDX9Xt I ",
"9Xg.d.n.N.M.=.[ N R c.tXnXAXLXIXBXeX!.U.J.U.Q.iXKXPXdXVXVXrX(.S g./.*X6X&X*Xn b.",
"7Xg.4X5XW C J n m <.@XgXVXLXIXpX!.i #       i E.Q.AXSXVXkXfX{.F S l.@Xv.k.].T 5X",
"7Xm b.x.W S.m.n E /.0XVXSXPXbX!.6 # o # o o # 6 i Q.PXGXkXnX XT.S 1.@Xz.E +Xx.#X",
"7Xj.+Xm.b.9X7X7XwX[.gXSXSXKXE.6 o # 7 7 2 3 2 X $ a VXKXZXGX|.(.U E B.c.B.&Xh.C ",
"F.S.S.f.m.qX0XvXDX0XxXDXDXsXp + 2 2 # . . * 2 > . 0 }.AXLXGX X|.1.G &.<.B.#Xk.b ",
"F.5XF.f.*XwXm.UXDX3XzXzXDX0Xu + u # @ - > @ @ 1 * 4 F lXLXFXrX>X'.G W <.z.N.B.C ",
"C F.N.I t 9 8 p ~.3XzXUXDXsXr 9 r & O & & + + * 0 4 r  XLXMXaX|.`.G &.<.z.B.6XN.",
"C %.M I d.s.m.s.E.UXIXUXvX0Xr 9 0 1 & = ; & @ + 4 * 4 W.LXFXlX(./.H <.c.c.+X7Xk.",
"x.d.q n.*X0X0X3XuXzXPXDXsXR.e X 1 X & , @ $ % , ; =   E.IXPXiXR./ 1.U <.).v.#XB.",
"j.f.9 *XvXxX XaXzXsXKXPXzXs., , = & ; 5 = % ; , ; % $ E.BXIXiXW.T.^.! ( l.k.v.#X",
"j.f.9 ].vX0Xg.}.ZXsXzXPXzXs.5 8 $ ; 5 e e 8 ; ; ; , , Q.BXIXJX}.(.;Xl.1.l.E E *X",
"d.j.n ].6Xg.D W.AXkXBXAXzXE.e 3 X ; 8 e p y , ; , , y ~.DXIXIXuX/.8X;X).+Xl.E v.",
"m.S.n.7X].( F (.dXVXSXBXBXQ.8 3 X ; , 8 p p e 8 , , p pXIXJXSXuXT.fX,X^.@X@Xk.x.",
"5X5X7XqX8X2X2X XaXkXKXKXJXU.7 3 : , = ; e y y y ; = a uXDXzXBX>X[.gX8Xl.).@Xk.k.",
"4X6X7X7XxXgX1XfXrXaXmXKXIXU.o 2 5 = @ ; ; , 8 e , $ F sXSXdXzXaXfXfXgX@Xb.k.W <.",
"#X6X$X+XgX8X`.fX>XrXaXmXLXQ.7 7 - $ = < $ $ , 5 ,   p sXZXsXVXkX1X1XgX8Xl.( W b.",
"h.$.Y <.c.~ L {.<XtXaXdXLXiXi o - : - # ; ; % - $ 5 R.KXSXaXfXkX^.;X8X8X,XE E &X",
"-.h N =.J h h ,.;X:XrXjXHXbXJ.7 2 4 & . # 5 3 > X p uXZXcXkXfX X/ ^.).@X@X<.k.4X",
"=.f z =.z w h K .X.XyXnXFXHXeXa . . . & 5 2 X . 0 R.ZXZXmXmX>XL./ U U l.c.k.v.4X",
"7.j j 7.@.v h :.I.K.<XnXmXHXHXQ.W.s O .     % i !.sXZXCXCXfX(.^.1.R H ~ c.l.B.&X",
"8.[ j } i.x d @.t.3.=XhXhXMXHXbXmXW.J.J.U.a J.pXAXGXFXCXCXyX^.L.1.<.~ c.c.c.B.#X",
"8.8.j z i.} d x q.3.-XtXtXNXHXHXbXAXdXlXdXbXJXIXGXLXGXMXhX:XH.^ <.<.c.c.z.B.#XS.",
"8.8.' ' u.8.) x  .:.I.<XyXyXjXMXmXLXLXbXJXIXBXdXAXFXFXnXeX_.H.! ~ <.c.<.R B.#XM.",
"8.{ } } u.u.6.l Z  .I.-X=X|.|.jXbXMXbXbXHXLXHXLXZXjXNXhX_.^ H.^ L <.2.J B z.$Xz.",
"9.8.{ 8.0.i.p.[ v x @.I.K.K.-XyXjXMXMXMXHXHXMXMXMXmXhX<XL.~ ! ,.4.2.&.J %.D.N.M ",
"9.8.{ 8.u.V.C.@.l x +.e.3.3.I.K.NXMXHXMXFXMXlXjXhXjX<X'.Q H ~ 4.2.M.-.B =.D.N.b ",
"G.8.{ { 0.i.XXi.o.x x +.>.>.K.K.tXnXMXNXjXeX|.:X<X=XOX;.P K 4.y.M.r.&.$.h.5XN.f ",
"G.G.{ { O.0.C.p.5.z k x  . . .I.<XtXtXtX:X_.H.L..X.Xy.:.#.;.t.y.XXr.=.&.N.5XN.f ",
"9.G.0.[ O.*.p.C.p.] k k | |  .>.P.<X<X=XK.4.Q 4.y.t.e.5.@.e.p.P.XXr.=.r.#X5XN.b ",
"{ V.7.O...*.C.XXP.w.` _ _ _ `  . .>.3.3.3.Q ;.3.t.e.5.+.5.a.P.oXoX2.r.Z.D.$Xh.b ",
"M V.7.[ ..#.i.i.P.u.6.] _ _ _ _ k l x Z X.K X.:.e.q.6. .5.a.P.P.XX7.r.Z.D.N.%.M ",
"j i.r.V z #.*.@.u.a.w.] _ _ _ _ l l l Z | Z Z +.w.w.6.6.w.a.P.a.Z.2.=.D.Z.=.C M "
};
