/* XPM */
static char *_041_f0385c19a6e910c15bdb0088304cb0a26ef98e776c49b9173626f8cfc8d78023[] = {
/* columns rows colors chars-per-pixel */
"40 40 58 1 ",
"  c #030102",
". c #080606",
"X c #0A0906",
"o c #070508",
"O c #090708",
"+ c #0C0B0B",
"@ c #100E0E",
"# c #11100E",
"$ c #0F0D10",
"% c #120F10",
"& c #141313",
"* c #181616",
"= c #1A1916",
"- c #171518",
"; c #1A1718",
": c #1C1B1B",
"> c #201E1E",
", c #22211F",
"< c #1F1D20",
"1 c #211F20",
"2 c #252323",
"3 c #292626",
"4 c #2A2926",
"5 c #292728",
"6 c #2C2A2B",
"7 c #312E2F",
"8 c #32312E",
"9 c #2F2D30",
"0 c #312F30",
"q c #353333",
"w c #393637",
"e c #3A3738",
"r c #3C3A3B",
"t c #413D3E",
"y c #41403E",
"u c #423F41",
"i c #454343",
"p c #484647",
"a c #4A4946",
"s c #494748",
"d c #4C4A4B",
"f c #514E4F",
"g c #54534F",
"h c #514F50",
"j c #545253",
"k c #595556",
"l c #595854",
"z c #595758",
"x c #5C5A5B",
"c c #62615F",
"v c #615F60",
"b c #656362",
"n c #686667",
"m c #6F6D6E",
"M c #7A7879",
"N c #82817D",
"B c #817F80",
"V c #A1A09C",
/* pixels */
"62&++:oo+2:&:: O1&-+ &: +:& rd :+  :q+2:",
"O2>&5:pjo6w: +orqw1&o : o@oo&&+ +-O&6%O&",
"&o +20pd:&  &++9- 0O+-o+O-&+: o+.2  O& 2",
"++%&o %qO&O :&&-&o%::&e2p2  -&* :O-:&+O&",
"o&+O> :: o+%O- +,&+O o&&< vk 52 5< o&: 2",
"oo:2&->+.+ #--5+o:.&++o+& jd 662e   :++O",
": :3 - -o&:.  q&o& &O::% - O+ 1:r2+.+&&-",
"o+ .+ OMn ::+- :5.&> q2 + >&O-+o 2:O:-+:",
" %Oo p BM.::qe::2*-w6:o  &* #+2::::O&+%<",
"#*&. mf :: -2%6::o22i  :> *.+6&%5pro5:  ",
" &+ -2:6r+%o O*--+o@&2&:: o-deo 6$5i:2<:",
"& &2-  X++ -,&+O +- 1O:+:+- dxO+ &5e5+q+",
" &&<-o&o-O-o.-.5r:-5 O:6*+o 2d& &192e.$$",
"+:   +Oo3#&:O.::p:&:-2o: 52O%+-+$ &<q$oo",
"o*1     O& %2O:-&O   ++ :66 -e-+$6&qb 5$",
" O++& jjo,i2& :  : wp&&-:O i*5 @:bs  :q<",
"wiX ,,4q  a: 5:ew26qt+*.t7.t+q>@<9+qv 6<",
"wa #=X 4g6 yp 2<i2  .>6>3%.@.>>@5 <udo-$",
"qxXXX= +aNeri ;$w3 &@@33.t>..+&%$%e$ <5$",
"28  ###  84 &2$1>2@.X>>.@>.&&7t.-96:<+ 5",
" O -&X*+:  #$9-<>3&ft>&&.@@>@>3>+o<q:-:+",
"Xo&4++#X&#&:$r9 +..77..&.*>.>>.>2&22.+  ",
"2 +<:Oo-O:# -<- O>t..+3u*+>.+2&.:+2: $%+",
"5%< :22655%#<o9r.>.gk.ik4>.>@.*&+  $. + ",
" $-$$< <X #%%oqq@..tf6t>@>3*3t.t5oO 48 %",
"-$<+&+ &4.@@-1  >*t236*2>**%*>.1 &o 2: +",
"5<29 %+:6# & %;&.>t@X..@%>%%*2+>z# :OO2 ",
"5u9< O: &&=+q>.+X@X+@>7>%;**>t2*r=-=O&2 ",
"2 lg : :=&@#>>+.+.2>.tt@*@%>2>*. :===#2a",
":Xwg 8#  =.&>.+&.@>>3>.37;@...X@## ,: qc",
"++X ## yl.>.>#*X%*@+.tf*X%>>++..X# =:X,=",
":#=6==XbV,X>.>@@+>%>@2t*@X@4@>+78#&:X#88",
": X:=:,=&&#=#,,X#6#r4oo+&+oq4# 4<o$  :=o",
"  #8,=, #&X=c88+ <<6=#oo#&+r,o=$ #&4r  =",
",#+y6 2*Xy==w+=,:  ++X $:=2 +&2<+& 4dX,+",
", :#=q###,+ X,X42# +$X$X=+X6::& &o2+Xo+2",
",*% &0O $ :&=,#&#X&:+ -5X+o&X42X#+$+++X+",
"6y -6.:O+ 2,X+-   <= ooq:$2X=+ +=:#4+o,&",
"X::&-*+ +$ OOqw #:4& & +-<:& X<X+o4q=:+ ",
",%0& - % -&&+*# 6, #   ,2&:X#X+22= $2o#+"
};
