/* XPM */
static char *result[] = {
/* columns rows colors chars-per-pixel */
"40 43 217 2 ",
"   c black",
".  c #060409",
"X  c #030713",
"o  c #17191A",
"O  c #0A1112",
"+  c #000026",
"@  c #0E2236",
"#  c #0E253D",
"$  c #1F2D3F",
"%  c #000047",
"&  c #00005D",
"*  c #001554",
"=  c #0D2741",
"-  c #0F2942",
";  c #00294A",
":  c #112E4D",
">  c #102A44",
",  c #19314D",
"<  c #083257",
"1  c #123354",
"2  c #12365B",
"3  c #14395F",
"4  c #0B2F54",
"5  c #273951",
"6  c #002262",
"7  c #093C6B",
"8  c #133B64",
"9  c #143F6A",
"0  c #183E66",
"q  c #002879",
"w  c #003A76",
"e  c #0F416E",
"r  c #15416D",
"t  c #1C426B",
"y  c #094578",
"u  c #154574",
"i  c #1B4672",
"p  c #164877",
"a  c #154778",
"s  c #16497B",
"d  c #194B7B",
"f  c #184977",
"g  c #264C77",
"h  c #36547A",
"j  c #2A4567",
"k  c #002F8D",
"l  c #002EA4",
"z  c #034889",
"x  c #164E83",
"c  c #184E84",
"v  c #175087",
"b  c #185187",
"n  c #16518A",
"m  c #19538C",
"M  c #004D93",
"N  c #004999",
"B  c #035498",
"V  c #175591",
"C  c #1A5691",
"Z  c #1B5995",
"A  c #155B9B",
"S  c #1B5D9C",
"D  c #224F80",
"F  c #265386",
"G  c #355683",
"H  c #225B95",
"J  c #2C5D95",
"K  c #225A98",
"L  c #305D91",
"P  c #1F619F",
"I  c #23639E",
"U  c #3B669A",
"Y  c #004DA2",
"T  c #0054AA",
"R  c #1A5FA1",
"E  c #005EB5",
"W  c #004DB9",
"Q  c #0061AA",
"!  c #1C62A5",
"~  c #1564AB",
"^  c #1C65AB",
"/  c #1D68AF",
"(  c #1560A5",
")  c #0064B3",
"_  c #016BBA",
"`  c #0D6CB7",
"'  c #1C6BB3",
"]  c #1B6EBA",
"[  c #1D71BD",
"{  c #1571BD",
"}  c #2164A4",
"|  c #236AAC",
" . c #2B6CAC",
".. c #2866A4",
"X. c #226DB4",
"o. c #286EB4",
"O. c #2A71B5",
"+. c #2C76BC",
"@. c #2673BA",
"#. c #3375B9",
"$. c #396BA1",
"%. c #586A87",
"&. c #6B798F",
"*. c #4B72A6",
"=. c #5879A8",
"-. c #4579B3",
";. c #617EA7",
":. c #006DC2",
">. c #0066C6",
",. c #0074CC",
"<. c #0374C5",
"1. c #1E75C4",
"2. c #1978CC",
"3. c #007BD3",
"4. c #007ED9",
"5. c #0075D6",
"6. c #1D7CD1",
"7. c #0065D7",
"8. c #2476C2",
"9. c #2C7AC3",
"0. c #237ACA",
"q. c #2C7DCA",
"w. c #2278C6",
"e. c #337CC4",
"r. c #227ED1",
"t. c #748197",
"y. c #7589AB",
"u. c #688AB9",
"i. c #7592BC",
"p. c #0D87DF",
"a. c #1E83DB",
"s. c #1984D0",
"d. c #2D82CE",
"f. c #3483CC",
"g. c #3C83CA",
"h. c #2181D6",
"j. c #2285DE",
"k. c #2389DC",
"l. c #2D86D6",
"z. c #358CDB",
"x. c #3A8EDA",
"c. c #3687D6",
"v. c #3C91DD",
"b. c #0088E3",
"n. c #1C8BE7",
"m. c #1499F3",
"M. c #228BE6",
"N. c #238EE9",
"B. c #278BE2",
"V. c #308FE0",
"C. c #3C95E4",
"Z. c #349CED",
"A. c #3C9BED",
"S. c #3694E8",
"D. c #3F9EF1",
"F. c #2D95E9",
"G. c #37A4F7",
"H. c #468ED7",
"J. c #4494DC",
"K. c #4E95DC",
"L. c #5999DB",
"P. c #528AC7",
"I. c #649BDE",
"U. c #6192CA",
"Y. c #4396E2",
"T. c #459EEB",
"R. c #449AE6",
"E. c #509FE8",
"W. c #439EF0",
"Q. c #48A1EF",
"!. c #58A2E9",
"~. c #4CA4F4",
"^. c #49A8F7",
"/. c #53ABFA",
"(. c #51A7F3",
"). c #5BB3FE",
"_. c #57B2FF",
"`. c #68AAEC",
"'. c #77ABE7",
"]. c #79B3EE",
"[. c #60AFF6",
"{. c #65B2FA",
"}. c #78B8F7",
"|. c #72AFF3",
" X c #7FC1FE",
".X c #858D99",
"XX c #899DBD",
"oX c #9BB5DB",
"OX c #8FAACF",
"+X c #AABCD6",
"@X c #A5B3CB",
"#X c #84B7EE",
"$X c #97BCE8",
"%X c #84BCF5",
"&X c #82BEF8",
"*X c #83B7F1",
"=X c #ACC3DC",
"-X c #8BC3FB",
";X c #83C1FF",
":X c #94CAFE",
">X c #98C9FC",
",X c #9BC9FA",
"<X c #B6C9E6",
"1X c #ABCCF4",
"2X c #A6CCF8",
"3X c #A7D1FE",
"4X c #B3D4FB",
"5X c #C3CFE0",
"6X c #C4DDFB",
"7X c #CCDBF4",
"8X c #C7D6EC",
"9X c #CEE6FF",
"0X c #C2E2FF",
"qX c #D3E4FA",
"wX c #D8E3F4",
"eX c #E1F2FF",
"rX c None",
/* pixels */
"rXrXrXrXrXrXrXrXrXrXrX{.}.%X-X2XrXrXrXrXrXrXrXrXrXrXrXrXrXrXrXrXrXrXrXrXrXrXrXrX",
"rXrXrXrXrXrXY.f.e.9.8.w.w.d.H.'.].-X-X].rXrXrXrXrXrXrXrXrXrXrXrXrXrXrXrXrXrXrXrX",
"rXrXrX| | | } n e 7 9 s c n M N E f.!.}.&X2X$XrXrXrXrXrXrXrXrXrXrXrXrXrXrXrXrXrX",
"rXrXC m a 9 s m K m x t 8 r t g g M Q p.Z.-X>X-X#XrXrXrXrXrXrXrXrXrXrXrXrXrXrXrX",
"rXrXrXrXm c r 9 c C K Z x x s u r t g ^ [ 3.m.{.;X2X$XrXrXrXrXrXrXrXrXrXrXrXrXrX",
"rXrXrXrXrXrXc u 9 a v S Z Z n c s p u n ! O.q.V.G.}.>X-Xl.rXrXrXrXrXrXrXrXrXrXrX",
"rXrXrXrXrXrXrXc 9 9 u c m C Z m v v s C / ^ / X.q.S.G.:XqXI.rXrXrXrXrXrXrXrXrXrX",
"rXrXrXrXrXrXrXrXx u u 9 f c C C v s s V / ^ ^ | / ) J.m.9XqX5.rXrXrXrXrXrXrXrXrX",
"rXrXrXrXrXrXrXrXrXs u 8 9 x Z V c s c ! / X.x.T.!.L.) g.G.9X#X5.rXrXrXrXrXrXrXrX",
"rXrXrXrXrXrXrXrXrXs 9 8 u C Z v v c m C Z | e.v.).>X].` <.-X,Xp.c.rXrXrXrXrXrXrX",
"rXrXrXrXrXrXrXrXrXs 9 8 s n m m n a 1 : : 3 x R { E.0X1XT L.2Xz.<.H.rXrXrXrXrXrX",
"rXrXrXrXrXrXrXrXC a 9 9 s n c v r = # - # O - x I T I.eX=X_ ].V.X.s.4XrXrXrXrXrX",
"rXrXrXrXrXrXrXrXn u r a v v C m u u a 8 - = o : d U l <X4XQ l.d.-.Z.2XwXrXrXrXrX",
"rXrXrXrXrXrXR S u u s c n R ! C S ^ ! 9 : , X o 2 d Z _ |.U @.' P.^.,.%.rXrXrXrX",
"rXrXrXrXrXZ ! c r x c m X.q.( +.+./ ! 8 t : h   O 3 r I v.I v O.R.r.g + rXrXrXrX",
"rXrXrXrXrXR C u s c x ! 6.,.l.x.] ' ' H L   @X+X  $ e f #.m 4 I X.i   rXrXrXrXrX",
"rXrXrXrXm Z u p c x S [ w.!./.d.' [ 1.! $.6 &.+X; . : 8 8 2 - 4 5   .Xt.rXrXrXrX",
"rXrXrXa m s u x x Z ] _ `.4Xz.:.0.q.h.1.C g % * , O @ # > : 1 1 5   .X&.rXrXrXrX",
"rXrXu a x u f x m ^ ] T.).E.] [ X.) B.M.2.x 0 8 # 2 a 2 1 8 u d e , X y K rXrXrX",
"rXrXu a u u s c ! ~ v._.J._ ~ v i -.2.M.M.r.1.| S ^ ^ C C O.O.O...x i m C rXrXrX",
"rXrXu s 9 u x C ( 9./.R.1.^ i < ..7Xe.n.B.M.M.M.M.0.[ 9.C.~.~.A.J. .v b Z rXrXrX",
"rX9 a u 9 s b S ~ Y.(.0./ r 7 G k qXoX>.S.n.M.M.6.s.l.v./._.^.#X}.d.m b K rXrXrX",
"rX9 f r r d m A @.Q.c.( i 8 z h k 4X6XW H.n.N.] m c.V.R.~.~.Z.'.*XY.R F B rXrXrX",
"rXu u 9 r b m A f.Y.^ 8 8 f u D N %XqX5.9.M.M.m A >.N.A.A.C.C.F.E.Y.X.J M U.<XrX",
"rXu a 9 r c m ! x.+.8 8 s u s n ~ Z.6X|._ e.w.w =.<X5.Z.W.W.W.R.c.z.9.K A H.i.rX",
"rXu u 9 r c c | f.s 3 a a 9 c Z ] n.:X>X4. .S w z 7X+X7.W.W.b.XX<Xb.e.Z ..f.F rX",
"rXu u 9 r x c | K 3 9 c 9 s v / w.3.}.>Xm.q.v j q I.7XP.b./.E %.8XI.4.J O._ %.y.",
"rXu u r 8 s c Z f 8 s u 9 c C ] 6.2.(.&X(.M.} 9 g >.4X<X,.V.G & @X<XE F #.B G t.",
"rXr u u 8 u v s 8 9 s 9 s v Z 1.2.6.A.}.[.k.@.a g :.C.3XK.Y h q U.8X*.N +.x u F ",
"rXu p u 8 u s u 8 9 a 9 x v R w.0.a.F././.S.w.x f 8.4.,X&X) u U T OX;.z ! s r y ",
"rXrXu f r 9 s r 8 u a 9 v c R 2.r.a.N./.(.C.r.m s 9.,.].>Xk.z U Y i.OXz Z u t rX",
"rXrXu s r 8 u u 9 a 9 9 v v Z 1.r.M.n.Q.W.S.0.V s X.{ C.{.x.B L N y.oXM c r u rX",
"rXrXr s u r r r 9 u u 9 x m m ' h.j.a.S.T.z.[ n n ^ ~ f.T.d.A S A m -.m u r u rX",
"rXrXrXu u u u r r u u r s v c Z [ r.6.z.R.q.! c Z ! A +.R.+.V Z Z b V d u r rXrX",
"rXrXrXu s u r r u u p u s s x x C ' [ f.x.| A n m Z v ..f.H s m x f i u r u rXrX",
"rXrXrXrXu a u 9 r u p u s x s s s c A | o.C m c n b s Z ..s s s p u u u r rXrXrX",
"rXrXrXrXrXa u 8 8 r i u u s s u p s p s x b x x x f f s f s u u r u u r rXrXrXrX",
"rXrXrXrXrXrXu 8 1 8 u u u u p p p p s p p p p p p u p u u u u u r s s rXrXrXrXrX",
"rXrXrXrXrXrXrXu 2 > 1 8 u u u p p p p u u u u u u u u u u f u u p s rXrXrXrXrXrX",
"rXrXrXrXrXrXrXrXs 8 - # 1 8 r u u f u u p f u p f f f p f f a u rXrXrXrXrXrXrXrX",
"rXrXrXrXrXrXrXrXrXrXp 1 # @ # : 2 8 r r r r r 9 9 r u a s rXrXrXrXrXrXrXrXrXrXrX",
"rXrXrXrXrXrXrXrXrXrXrXrXr 2 : - @ @ # # # # - - : 8 rXrXrXrXrXrXrXrXrXrXrXrXrXrX",
"rXrXrXrXrXrXrXrXrXrXrXrXrXrXrXrXrXrX: : rXrXrXrXrXrXrXrXrXrXrXrXrXrXrXrXrXrXrXrX"
};
